<svg width="450" height="150" viewBox="0 0 450 150" fill="none" xmlns="http://www.w3.org/2000/svg">
<rect width="450" height="150" rx="5" fill="white"/>
<rect x="34" y="26" width="40" height="58" rx="8" fill="url(#paint0_linear_2_47)"/>
<rect x="25" y="62" width="58" height="40" rx="8" fill="#D5D5D5"/>
<rect x="30" y="71" width="32" height="4" rx="2" fill="#7E7E7E"/>
<rect x="30" y="80" width="14" height="4" rx="2" fill="#7E7E7E"/>
<rect x="30" y="89" width="49" height="4" rx="2" fill="#7E7E7E"/>
<rect x="73" y="62" width="40" height="58" rx="8" fill="url(#paint1_linear_2_47)"/>
<circle cx="93" cy="101" r="16" fill="#BDBDBD" stroke="#555555" stroke-width="2"/>
<circle cx="93" cy="101" r="5" fill="#BDBDBD" stroke="#ACACAC" stroke-width="2"/>
<circle cx="93" cy="101" r="3" fill="#BDBDBD" stroke="#848484"/>
<circle cx="93" cy="101" r="13" stroke="#C8C8C8"/>
<path d="M101.813 90.5369C102.584 91.3963 101.526 92.6617 100.544 92.0559L79.6904 79.2017C79.1718 78.882 79.0571 78.1768 79.4478 77.7093L83.9436 72.3283C84.3342 71.8608 85.0485 71.8482 85.4554 72.3017L101.813 90.5369Z" fill="#D8D8D8"/>
<rect x="62" y="40" width="58" height="40" rx="8" fill="#1A1A1A" stroke="#8B8B8B" stroke-width="4"/>
<path d="M72.756 58.168C72.148 58.168 71.604 58.06 71.124 57.844C70.644 57.628 70.264 57.304 69.984 56.872C69.712 56.432 69.576 55.884 69.576 55.228V54.976H70.572V55.228C70.572 55.924 70.776 56.444 71.184 56.788C71.592 57.124 72.116 57.292 72.756 57.292C73.412 57.292 73.912 57.144 74.256 56.848C74.6 56.552 74.772 56.18 74.772 55.732C74.772 55.42 74.696 55.172 74.544 54.988C74.392 54.804 74.176 54.656 73.896 54.544C73.616 54.424 73.288 54.32 72.912 54.232L72.276 54.076C71.788 53.948 71.356 53.792 70.98 53.608C70.604 53.424 70.308 53.184 70.092 52.888C69.884 52.584 69.78 52.196 69.78 51.724C69.78 51.252 69.9 50.844 70.14 50.5C70.38 50.156 70.712 49.892 71.136 49.708C71.56 49.524 72.056 49.432 72.624 49.432C73.192 49.432 73.7 49.532 74.148 49.732C74.596 49.924 74.952 50.212 75.216 50.596C75.48 50.972 75.612 51.448 75.612 52.024V52.528H74.616V52.024C74.616 51.616 74.528 51.288 74.352 51.04C74.184 50.792 73.948 50.608 73.644 50.488C73.348 50.368 73.008 50.308 72.624 50.308C72.072 50.308 71.628 50.432 71.292 50.68C70.956 50.92 70.788 51.264 70.788 51.712C70.788 52.008 70.856 52.248 70.992 52.432C71.136 52.616 71.34 52.768 71.604 52.888C71.868 53 72.184 53.1 72.552 53.188L73.188 53.344C73.668 53.448 74.104 53.592 74.496 53.776C74.888 53.952 75.196 54.196 75.42 54.508C75.652 54.812 75.768 55.212 75.768 55.708C75.768 56.204 75.644 56.636 75.396 57.004C75.148 57.372 74.796 57.66 74.34 57.868C73.892 58.068 73.364 58.168 72.756 58.168ZM72.3 59.392V48.208H73.224V59.392H72.3ZM80.4374 58V49.6H81.3854V58H80.4374ZM85.7428 58.168C85.0148 58.168 84.3988 58 83.8948 57.664C83.3988 57.328 83.0988 56.796 82.9948 56.068L83.8948 55.864C83.9588 56.248 84.0788 56.552 84.2548 56.776C84.4308 56.992 84.6468 57.148 84.9028 57.244C85.1668 57.332 85.4468 57.376 85.7428 57.376C86.1828 57.376 86.5308 57.288 86.7868 57.112C87.0428 56.936 87.1708 56.7 87.1708 56.404C87.1708 56.1 87.0468 55.888 86.7988 55.768C86.5588 55.64 86.2268 55.536 85.8028 55.456L85.3108 55.372C84.9348 55.308 84.5908 55.208 84.2788 55.072C83.9668 54.936 83.7188 54.752 83.5348 54.52C83.3508 54.288 83.2588 53.996 83.2588 53.644C83.2588 53.116 83.4628 52.704 83.8708 52.408C84.2788 52.112 84.8188 51.964 85.4908 51.964C86.1548 51.964 86.6908 52.116 87.0988 52.42C87.5148 52.716 87.7828 53.136 87.9028 53.68L87.0148 53.908C86.9428 53.484 86.7708 53.188 86.4988 53.02C86.2268 52.844 85.8908 52.756 85.4908 52.756C85.0908 52.756 84.7748 52.832 84.5428 52.984C84.3108 53.128 84.1948 53.344 84.1948 53.632C84.1948 53.912 84.3028 54.12 84.5188 54.256C84.7428 54.384 85.0388 54.48 85.4068 54.544L85.8988 54.628C86.3148 54.7 86.6868 54.8 87.0148 54.928C87.3508 55.048 87.6148 55.224 87.8068 55.456C88.0068 55.688 88.1068 55.992 88.1068 56.368C88.1068 56.944 87.8908 57.388 87.4588 57.7C87.0348 58.012 86.4628 58.168 85.7428 58.168Z" fill="url(#paint2_linear_2_47)"/>
<path d="M170.52 58V40.144H174.984V42.484H175.632C175.92 41.86 176.46 41.272 177.252 40.72C178.044 40.144 179.244 39.856 180.852 39.856C182.244 39.856 183.456 40.18 184.488 40.828C185.544 41.452 186.36 42.328 186.936 43.456C187.512 44.56 187.8 45.856 187.8 47.344V58H183.264V47.704C183.264 46.36 182.928 45.352 182.256 44.68C181.608 44.008 180.672 43.672 179.448 43.672C178.056 43.672 176.976 44.14 176.208 45.076C175.44 45.988 175.056 47.272 175.056 48.928V58H170.52ZM200.84 58.504C199.064 58.504 197.492 58.132 196.124 57.388C194.78 56.62 193.724 55.552 192.956 54.184C192.212 52.792 191.84 51.16 191.84 49.288V48.856C191.84 46.984 192.212 45.364 192.956 43.996C193.7 42.604 194.744 41.536 196.088 40.792C197.432 40.024 198.992 39.64 200.768 39.64C202.52 39.64 204.044 40.036 205.34 40.828C206.636 41.596 207.644 42.676 208.364 44.068C209.084 45.436 209.444 47.032 209.444 48.856V50.404H196.448C196.496 51.628 196.952 52.624 197.816 53.392C198.68 54.16 199.736 54.544 200.984 54.544C202.256 54.544 203.192 54.268 203.792 53.716C204.392 53.164 204.848 52.552 205.16 51.88L208.868 53.824C208.532 54.448 208.04 55.132 207.392 55.876C206.768 56.596 205.928 57.22 204.872 57.748C203.816 58.252 202.472 58.504 200.84 58.504ZM196.484 47.02H204.836C204.74 45.988 204.32 45.16 203.576 44.536C202.856 43.912 201.908 43.6 200.732 43.6C199.508 43.6 198.536 43.912 197.816 44.536C197.096 45.16 196.652 45.988 196.484 47.02ZM220.285 58.288C218.893 58.288 217.669 57.976 216.613 57.352C215.581 56.704 214.777 55.816 214.201 54.688C213.625 53.56 213.337 52.264 213.337 50.8V40.144H217.873V50.44C217.873 51.784 218.197 52.792 218.845 53.464C219.517 54.136 220.465 54.472 221.689 54.472C223.081 54.472 224.161 54.016 224.929 53.104C225.697 52.168 226.081 50.872 226.081 49.216V40.144H230.617V58H226.153V55.66H225.505C225.217 56.26 224.677 56.848 223.885 57.424C223.093 58 221.893 58.288 220.285 58.288ZM243.801 58.504C242.025 58.504 240.453 58.132 239.085 57.388C237.741 56.62 236.685 55.552 235.917 54.184C235.173 52.792 234.801 51.16 234.801 49.288V48.856C234.801 46.984 235.173 45.364 235.917 43.996C236.661 42.604 237.705 41.536 239.049 40.792C240.393 40.024 241.953 39.64 243.729 39.64C245.481 39.64 247.005 40.036 248.301 40.828C249.597 41.596 250.605 42.676 251.325 44.068C252.045 45.436 252.405 47.032 252.405 48.856V50.404H239.409C239.457 51.628 239.913 52.624 240.777 53.392C241.641 54.16 242.697 54.544 243.945 54.544C245.217 54.544 246.153 54.268 246.753 53.716C247.353 53.164 247.809 52.552 248.121 51.88L251.829 53.824C251.493 54.448 251.001 55.132 250.353 55.876C249.729 56.596 248.889 57.22 247.833 57.748C246.777 58.252 245.433 58.504 243.801 58.504ZM239.445 47.02H247.797C247.701 45.988 247.281 45.16 246.537 44.536C245.817 43.912 244.869 43.6 243.693 43.6C242.469 43.6 241.497 43.912 240.777 44.536C240.057 45.16 239.613 45.988 239.445 47.02Z" fill="url(#paint3_linear_2_47)"/>
<path d="M265.874 58.504C262.754 58.504 260.282 57.64 258.458 55.912C256.634 54.16 255.722 51.664 255.722 48.424V42.376C255.722 39.136 256.634 36.652 258.458 34.924C260.282 33.172 262.754 32.296 265.874 32.296C268.97 32.296 271.358 33.148 273.038 34.852C274.742 36.532 275.594 38.848 275.594 41.8V42.016H270.914V41.656C270.914 40.168 270.494 38.944 269.654 37.984C268.838 37.024 267.578 36.544 265.874 36.544C264.194 36.544 262.874 37.06 261.914 38.092C260.954 39.124 260.474 40.528 260.474 42.304V48.496C260.474 50.248 260.954 51.652 261.914 52.708C262.874 53.74 264.194 54.256 265.874 54.256C267.578 54.256 268.838 53.776 269.654 52.816C270.494 51.832 270.914 50.608 270.914 49.144V48.496H275.594V49C275.594 51.952 274.742 54.28 273.038 55.984C271.358 57.664 268.97 58.504 265.874 58.504ZM288.106 58.504C286.33 58.504 284.734 58.144 283.318 57.424C281.902 56.704 280.786 55.66 279.97 54.292C279.154 52.924 278.746 51.28 278.746 49.36V48.784C278.746 46.864 279.154 45.22 279.97 43.852C280.786 42.484 281.902 41.44 283.318 40.72C284.734 40 286.33 39.64 288.106 39.64C289.882 39.64 291.478 40 292.894 40.72C294.31 41.44 295.426 42.484 296.242 43.852C297.058 45.22 297.466 46.864 297.466 48.784V49.36C297.466 51.28 297.058 52.924 296.242 54.292C295.426 55.66 294.31 56.704 292.894 57.424C291.478 58.144 289.882 58.504 288.106 58.504ZM288.106 54.472C289.498 54.472 290.65 54.028 291.562 53.14C292.474 52.228 292.93 50.932 292.93 49.252V48.892C292.93 47.212 292.474 45.928 291.562 45.04C290.674 44.128 289.522 43.672 288.106 43.672C286.714 43.672 285.562 44.128 284.65 45.04C283.738 45.928 283.282 47.212 283.282 48.892V49.252C283.282 50.932 283.738 52.228 284.65 53.14C285.562 54.028 286.714 54.472 288.106 54.472ZM301.653 58V40.144H306.117V42.16H306.765C307.029 41.44 307.461 40.912 308.061 40.576C308.685 40.24 309.405 40.072 310.221 40.072H312.381V44.104H310.149C308.997 44.104 308.049 44.416 307.305 45.04C306.561 45.64 306.189 46.576 306.189 47.848V58H301.653ZM323.429 58.504C321.653 58.504 320.081 58.132 318.713 57.388C317.369 56.62 316.313 55.552 315.545 54.184C314.801 52.792 314.429 51.16 314.429 49.288V48.856C314.429 46.984 314.801 45.364 315.545 43.996C316.289 42.604 317.333 41.536 318.677 40.792C320.021 40.024 321.581 39.64 323.357 39.64C325.109 39.64 326.633 40.036 327.929 40.828C329.225 41.596 330.233 42.676 330.953 44.068C331.673 45.436 332.033 47.032 332.033 48.856V50.404H319.037C319.085 51.628 319.541 52.624 320.405 53.392C321.269 54.16 322.325 54.544 323.573 54.544C324.845 54.544 325.781 54.268 326.381 53.716C326.981 53.164 327.437 52.552 327.749 51.88L331.457 53.824C331.121 54.448 330.629 55.132 329.981 55.876C329.357 56.596 328.517 57.22 327.461 57.748C326.405 58.252 325.061 58.504 323.429 58.504ZM319.073 47.02H327.425C327.329 45.988 326.909 45.16 326.165 44.536C325.445 43.912 324.497 43.6 323.321 43.6C322.097 43.6 321.125 43.912 320.405 44.536C319.685 45.16 319.241 45.988 319.073 47.02ZM342.875 58.288C341.483 58.288 340.259 57.976 339.203 57.352C338.171 56.704 337.367 55.816 336.791 54.688C336.215 53.56 335.927 52.264 335.927 50.8V40.144H340.463V50.44C340.463 51.784 340.787 52.792 341.435 53.464C342.107 54.136 343.055 54.472 344.279 54.472C345.671 54.472 346.751 54.016 347.519 53.104C348.287 52.168 348.671 50.872 348.671 49.216V40.144H353.207V58H348.743V55.66H348.095C347.807 56.26 347.267 56.848 346.475 57.424C345.683 58 344.483 58.288 342.875 58.288ZM365.094 58C363.918 58 362.958 57.64 362.214 56.92C361.494 56.176 361.134 55.192 361.134 53.968V43.888H356.67V40.144H361.134V34.6H365.67V40.144H370.566V43.888H365.67V53.176C365.67 53.896 366.006 54.256 366.678 54.256H370.134V58H365.094ZM374.672 58V40.144H379.208V58H374.672ZM376.94 38.056C376.124 38.056 375.428 37.792 374.852 37.264C374.3 36.736 374.024 36.04 374.024 35.176C374.024 34.312 374.3 33.616 374.852 33.088C375.428 32.56 376.124 32.296 376.94 32.296C377.78 32.296 378.476 32.56 379.028 33.088C379.58 33.616 379.856 34.312 379.856 35.176C379.856 36.04 379.58 36.736 379.028 37.264C378.476 37.792 377.78 38.056 376.94 38.056ZM384.235 58V32.8H388.771V58H384.235ZM401.213 58.504C398.885 58.504 396.977 58 395.489 56.992C394.001 55.984 393.101 54.544 392.789 52.672L396.965 51.592C397.133 52.432 397.409 53.092 397.793 53.572C398.201 54.052 398.693 54.4 399.269 54.616C399.869 54.808 400.517 54.904 401.213 54.904C402.269 54.904 403.049 54.724 403.553 54.364C404.057 53.98 404.309 53.512 404.309 52.96C404.309 52.408 404.069 51.988 403.589 51.7C403.109 51.388 402.341 51.136 401.285 50.944L400.277 50.764C399.029 50.524 397.889 50.2 396.857 49.792C395.825 49.36 394.997 48.772 394.373 48.028C393.749 47.284 393.437 46.324 393.437 45.148C393.437 43.372 394.085 42.016 395.381 41.08C396.677 40.12 398.381 39.64 400.493 39.64C402.485 39.64 404.141 40.084 405.461 40.972C406.781 41.86 407.645 43.024 408.053 44.464L403.841 45.76C403.649 44.848 403.253 44.2 402.653 43.816C402.077 43.432 401.357 43.24 400.493 43.24C399.629 43.24 398.969 43.396 398.513 43.708C398.057 43.996 397.829 44.404 397.829 44.932C397.829 45.508 398.069 45.94 398.549 46.228C399.029 46.492 399.677 46.696 400.493 46.84L401.501 47.02C402.845 47.26 404.057 47.584 405.137 47.992C406.241 48.376 407.105 48.94 407.729 49.684C408.377 50.404 408.701 51.388 408.701 52.636C408.701 54.508 408.017 55.96 406.649 56.992C405.305 58 403.493 58.504 401.213 58.504ZM171.528 94V85.264H168.378V84.2H175.854V85.264H172.704V94H171.528ZM177.392 94V84.2H178.498V88.246H178.694C178.788 88.0407 178.928 87.8493 179.114 87.672C179.31 87.4853 179.558 87.3313 179.856 87.21C180.164 87.0887 180.552 87.028 181.018 87.028C181.532 87.028 181.989 87.14 182.39 87.364C182.801 87.5787 183.128 87.896 183.37 88.316C183.613 88.7267 183.734 89.24 183.734 89.856V94H182.628V89.94C182.628 89.2587 182.456 88.764 182.11 88.456C181.774 88.148 181.317 87.994 180.738 87.994C180.076 87.994 179.534 88.2087 179.114 88.638C178.704 89.0673 178.498 89.7067 178.498 90.556V94H177.392ZM189.114 94.196C188.424 94.196 187.817 94.0513 187.294 93.762C186.772 93.4633 186.366 93.048 186.076 92.516C185.787 91.984 185.642 91.368 185.642 90.668V90.5C185.642 89.7907 185.787 89.17 186.076 88.638C186.366 88.106 186.767 87.6953 187.28 87.406C187.794 87.1073 188.382 86.958 189.044 86.958C189.688 86.958 190.258 87.098 190.752 87.378C191.247 87.6487 191.634 88.0407 191.914 88.554C192.194 89.0673 192.334 89.6693 192.334 90.36V90.864H186.748C186.776 91.6013 187.014 92.18 187.462 92.6C187.91 93.0107 188.47 93.216 189.142 93.216C189.73 93.216 190.183 93.0807 190.5 92.81C190.818 92.5393 191.06 92.2173 191.228 91.844L192.18 92.306C192.04 92.5953 191.844 92.8847 191.592 93.174C191.35 93.4633 191.028 93.706 190.626 93.902C190.234 94.098 189.73 94.196 189.114 94.196ZM186.762 89.954H191.214C191.177 89.3193 190.958 88.8247 190.556 88.47C190.164 88.1153 189.66 87.938 189.044 87.938C188.419 87.938 187.906 88.1153 187.504 88.47C187.103 88.8247 186.856 89.3193 186.762 89.954ZM201.359 94.196C200.631 94.196 199.997 94.0653 199.455 93.804C198.914 93.5427 198.494 93.1553 198.195 92.642C197.897 92.1193 197.747 91.48 197.747 90.724V84.2H198.909V90.738C198.909 91.5407 199.124 92.1427 199.553 92.544C199.983 92.9453 200.585 93.146 201.359 93.146C202.134 93.146 202.736 92.9453 203.165 92.544C203.595 92.1427 203.809 91.5407 203.809 90.738V84.2H204.985V90.724C204.985 91.48 204.836 92.1193 204.537 92.642C204.239 93.1553 203.814 93.5427 203.263 93.804C202.722 94.0653 202.087 94.196 201.359 94.196ZM207.141 94V84.2H209.423L212.839 93.258H213.021V84.2H214.183V94H211.901L208.499 84.928H208.303V94H207.141ZM216.438 94V84.2H217.614V94H216.438ZM219.184 94L222.348 89.058L219.226 84.2H220.612L223.104 88.246H223.286L225.792 84.2H227.164L224.056 89.058L227.22 94H225.848L223.286 89.87H223.104L220.556 94H219.184ZM235.04 94.126C234.545 94.126 234.088 94.0187 233.668 93.804C233.257 93.5893 232.93 93.272 232.688 92.852C232.454 92.4227 232.338 91.9047 232.338 91.298V87.154H233.444V91.214C233.444 91.8953 233.612 92.39 233.948 92.698C234.293 93.006 234.755 93.16 235.334 93.16C235.987 93.16 236.524 92.9453 236.944 92.516C237.364 92.0867 237.574 91.4473 237.574 90.598V87.154H238.68V94H237.602V92.838H237.406C237.256 93.1647 237 93.4633 236.636 93.734C236.272 93.9953 235.74 94.126 235.04 94.126ZM243.514 94C243.122 94 242.819 93.8927 242.604 93.678C242.399 93.4633 242.296 93.1693 242.296 92.796V88.12H240.238V87.154H242.296V84.718H243.402V87.154H245.642V88.12H243.402V92.628C243.402 92.908 243.537 93.048 243.808 93.048H245.334V94H243.514ZM247.433 94V87.154H248.539V94H247.433ZM247.993 86.09C247.751 86.09 247.545 86.0107 247.377 85.852C247.219 85.6933 247.139 85.4927 247.139 85.25C247.139 84.998 247.219 84.7927 247.377 84.634C247.545 84.4753 247.751 84.396 247.993 84.396C248.236 84.396 248.437 84.4753 248.595 84.634C248.754 84.7927 248.833 84.998 248.833 85.25C248.833 85.4927 248.754 85.6933 248.595 85.852C248.437 86.0107 248.236 86.09 247.993 86.09ZM250.865 94V84.2H251.971V94H250.865ZM254.297 94V87.154H255.403V94H254.297ZM254.857 86.09C254.614 86.09 254.409 86.0107 254.241 85.852C254.082 85.6933 254.003 85.4927 254.003 85.25C254.003 84.998 254.082 84.7927 254.241 84.634C254.409 84.4753 254.614 84.396 254.857 84.396C255.099 84.396 255.3 84.4753 255.459 84.634C255.617 84.7927 255.697 84.998 255.697 85.25C255.697 85.4927 255.617 85.6933 255.459 85.852C255.3 86.0107 255.099 86.09 254.857 86.09ZM260.248 94C259.856 94 259.553 93.8927 259.338 93.678C259.133 93.4633 259.03 93.1693 259.03 92.796V88.12H256.972V87.154H259.03V84.718H260.136V87.154H262.376V88.12H260.136V92.628C260.136 92.908 260.272 93.048 260.542 93.048H262.068V94H260.248ZM264.168 94V87.154H265.274V94H264.168ZM264.728 86.09C264.485 86.09 264.28 86.0107 264.112 85.852C263.953 85.6933 263.874 85.4927 263.874 85.25C263.874 84.998 263.953 84.7927 264.112 84.634C264.28 84.4753 264.485 84.396 264.728 84.396C264.971 84.396 265.171 84.4753 265.33 84.634C265.489 84.7927 265.568 84.998 265.568 85.25C265.568 85.4927 265.489 85.6933 265.33 85.852C265.171 86.0107 264.971 86.09 264.728 86.09ZM270.736 94.196C270.045 94.196 269.438 94.0513 268.916 93.762C268.393 93.4633 267.987 93.048 267.698 92.516C267.408 91.984 267.264 91.368 267.264 90.668V90.5C267.264 89.7907 267.408 89.17 267.698 88.638C267.987 88.106 268.388 87.6953 268.902 87.406C269.415 87.1073 270.003 86.958 270.666 86.958C271.31 86.958 271.879 87.098 272.374 87.378C272.868 87.6487 273.256 88.0407 273.536 88.554C273.816 89.0673 273.956 89.6693 273.956 90.36V90.864H268.37C268.398 91.6013 268.636 92.18 269.084 92.6C269.532 93.0107 270.092 93.216 270.764 93.216C271.352 93.216 271.804 93.0807 272.122 92.81C272.439 92.5393 272.682 92.2173 272.85 91.844L273.802 92.306C273.662 92.5953 273.466 92.8847 273.214 93.174C272.971 93.4633 272.649 93.706 272.248 93.902C271.856 94.098 271.352 94.196 270.736 94.196ZM268.384 89.954H272.836C272.798 89.3193 272.579 88.8247 272.178 88.47C271.786 88.1153 271.282 87.938 270.666 87.938C270.04 87.938 269.527 88.1153 269.126 88.47C268.724 88.8247 268.477 89.3193 268.384 89.954ZM278.643 94.196C277.793 94.196 277.075 94 276.487 93.608C275.908 93.216 275.558 92.5953 275.437 91.746L276.487 91.508C276.561 91.956 276.701 92.3107 276.907 92.572C277.112 92.824 277.364 93.006 277.663 93.118C277.971 93.2207 278.297 93.272 278.643 93.272C279.156 93.272 279.562 93.1693 279.861 92.964C280.159 92.7587 280.309 92.4833 280.309 92.138C280.309 91.7833 280.164 91.536 279.875 91.396C279.595 91.2467 279.207 91.1253 278.713 91.032L278.139 90.934C277.7 90.8593 277.299 90.7427 276.935 90.584C276.571 90.4253 276.281 90.2107 276.067 89.94C275.852 89.6693 275.745 89.3287 275.745 88.918C275.745 88.302 275.983 87.8213 276.459 87.476C276.935 87.1307 277.565 86.958 278.349 86.958C279.123 86.958 279.749 87.1353 280.225 87.49C280.71 87.8353 281.023 88.3253 281.163 88.96L280.127 89.226C280.043 88.7313 279.842 88.386 279.525 88.19C279.207 87.9847 278.815 87.882 278.349 87.882C277.882 87.882 277.513 87.9707 277.243 88.148C276.972 88.316 276.837 88.568 276.837 88.904C276.837 89.2307 276.963 89.4733 277.215 89.632C277.476 89.7813 277.821 89.8933 278.251 89.968L278.825 90.066C279.31 90.15 279.744 90.2667 280.127 90.416C280.519 90.556 280.827 90.7613 281.051 91.032C281.284 91.3027 281.401 91.6573 281.401 92.096C281.401 92.768 281.149 93.286 280.645 93.65C280.15 94.014 279.483 94.196 278.643 94.196ZM288.207 94V88.12H286.107V87.154H288.207V85.404C288.207 85.0307 288.31 84.7367 288.515 84.522C288.73 84.3073 289.033 84.2 289.425 84.2H291.147V85.152H289.733C289.453 85.152 289.313 85.292 289.313 85.572V87.154H291.469V88.12H289.313V94H288.207ZM295.879 94.196C295.188 94.196 294.577 94.0513 294.045 93.762C293.522 93.4727 293.111 93.0667 292.813 92.544C292.523 92.012 292.379 91.3867 292.379 90.668V90.486C292.379 89.7767 292.523 89.156 292.813 88.624C293.111 88.092 293.522 87.6813 294.045 87.392C294.577 87.1027 295.188 86.958 295.879 86.958C296.569 86.958 297.176 87.1027 297.699 87.392C298.231 87.6813 298.641 88.092 298.931 88.624C299.229 89.156 299.379 89.7767 299.379 90.486V90.668C299.379 91.3867 299.229 92.012 298.931 92.544C298.641 93.0667 298.231 93.4727 297.699 93.762C297.176 94.0513 296.569 94.196 295.879 94.196ZM295.879 93.202C296.607 93.202 297.185 92.9733 297.615 92.516C298.053 92.0493 298.273 91.424 298.273 90.64V90.514C298.273 89.73 298.053 89.1093 297.615 88.652C297.185 88.1853 296.607 87.952 295.879 87.952C295.16 87.952 294.581 88.1853 294.143 88.652C293.704 89.1093 293.485 89.73 293.485 90.514V90.64C293.485 91.424 293.704 92.0493 294.143 92.516C294.581 92.9733 295.16 93.202 295.879 93.202ZM301.369 94V87.154H302.447V87.994H302.643C302.764 87.6953 302.951 87.476 303.203 87.336C303.455 87.196 303.786 87.126 304.197 87.126H305.009V88.134H304.127C303.632 88.134 303.231 88.274 302.923 88.554C302.624 88.8247 302.475 89.2493 302.475 89.828V94H301.369ZM312.762 94C312.37 94 312.067 93.8927 311.852 93.678C311.647 93.4633 311.544 93.1693 311.544 92.796V88.12H309.486V87.154H311.544V84.718H312.65V87.154H314.89V88.12H312.65V92.628C312.65 92.908 312.785 93.048 313.056 93.048H314.582V94H312.762ZM316.682 94V84.2H317.788V88.246H317.984C318.077 88.0407 318.217 87.8493 318.404 87.672C318.6 87.4853 318.847 87.3313 319.146 87.21C319.454 87.0887 319.841 87.028 320.308 87.028C320.821 87.028 321.278 87.14 321.68 87.364C322.09 87.5787 322.417 87.896 322.66 88.316C322.902 88.7267 323.024 89.24 323.024 89.856V94H321.918V89.94C321.918 89.2587 321.745 88.764 321.4 88.456C321.064 88.148 320.606 87.994 320.028 87.994C319.365 87.994 318.824 88.2087 318.404 88.638C317.993 89.0673 317.788 89.7067 317.788 90.556V94H316.682ZM328.403 94.196C327.713 94.196 327.106 94.0513 326.583 93.762C326.061 93.4633 325.655 93.048 325.365 92.516C325.076 91.984 324.931 91.368 324.931 90.668V90.5C324.931 89.7907 325.076 89.17 325.365 88.638C325.655 88.106 326.056 87.6953 326.569 87.406C327.083 87.1073 327.671 86.958 328.333 86.958C328.977 86.958 329.547 87.098 330.041 87.378C330.536 87.6487 330.923 88.0407 331.203 88.554C331.483 89.0673 331.623 89.6693 331.623 90.36V90.864H326.037C326.065 91.6013 326.303 92.18 326.751 92.6C327.199 93.0107 327.759 93.216 328.431 93.216C329.019 93.216 329.472 93.0807 329.789 92.81C330.107 92.5393 330.349 92.2173 330.517 91.844L331.469 92.306C331.329 92.5953 331.133 92.8847 330.881 93.174C330.639 93.4633 330.317 93.706 329.915 93.902C329.523 94.098 329.019 94.196 328.403 94.196ZM326.051 89.954H330.503C330.466 89.3193 330.247 88.8247 329.845 88.47C329.453 88.1153 328.949 87.938 328.333 87.938C327.708 87.938 327.195 88.1153 326.793 88.47C326.392 88.8247 326.145 89.3193 326.051 89.954ZM230.766 112V102.2H233.006L235.61 111.258H235.792L238.396 102.2H240.636V112H239.502V102.97H239.306L236.716 112H234.686L232.096 102.97H231.9V112H230.766ZM245.022 112.196C244.546 112.196 244.112 112.112 243.72 111.944C243.328 111.776 243.02 111.533 242.796 111.216C242.572 110.899 242.46 110.511 242.46 110.054C242.46 109.587 242.572 109.205 242.796 108.906C243.02 108.598 243.328 108.369 243.72 108.22C244.112 108.061 244.55 107.982 245.036 107.982H247.346V107.478C247.346 106.993 247.201 106.61 246.912 106.33C246.632 106.05 246.212 105.91 245.652 105.91C245.101 105.91 244.672 106.045 244.364 106.316C244.056 106.577 243.846 106.932 243.734 107.38L242.698 107.044C242.81 106.661 242.987 106.316 243.23 106.008C243.472 105.691 243.794 105.439 244.196 105.252C244.606 105.056 245.096 104.958 245.666 104.958C246.543 104.958 247.224 105.187 247.71 105.644C248.195 106.092 248.438 106.727 248.438 107.548V110.642C248.438 110.922 248.568 111.062 248.83 111.062H249.46V112H248.494C248.186 112 247.938 111.916 247.752 111.748C247.565 111.571 247.472 111.337 247.472 111.048V110.978H247.304C247.201 111.155 247.061 111.342 246.884 111.538C246.716 111.725 246.482 111.879 246.184 112C245.885 112.131 245.498 112.196 245.022 112.196ZM245.148 111.244C245.801 111.244 246.328 111.053 246.73 110.67C247.14 110.278 247.346 109.732 247.346 109.032V108.878H245.078C244.639 108.878 244.275 108.976 243.986 109.172C243.706 109.359 243.566 109.643 243.566 110.026C243.566 110.409 243.71 110.707 244 110.922C244.298 111.137 244.681 111.244 245.148 111.244ZM253.681 112.196C253.093 112.196 252.552 112.056 252.057 111.776C251.562 111.496 251.17 111.09 250.881 110.558C250.592 110.026 250.447 109.396 250.447 108.668V108.486C250.447 107.758 250.592 107.133 250.881 106.61C251.17 106.078 251.558 105.672 252.043 105.392C252.538 105.103 253.084 104.958 253.681 104.958C254.157 104.958 254.558 105.023 254.885 105.154C255.221 105.275 255.492 105.434 255.697 105.63C255.902 105.817 256.061 106.017 256.173 106.232H256.369V102.2H257.475V112H256.397V110.866H256.201C256.014 111.211 255.725 111.519 255.333 111.79C254.941 112.061 254.39 112.196 253.681 112.196ZM253.975 111.216C254.684 111.216 255.258 110.992 255.697 110.544C256.145 110.087 256.369 109.452 256.369 108.64V108.514C256.369 107.702 256.145 107.072 255.697 106.624C255.258 106.167 254.684 105.938 253.975 105.938C253.275 105.938 252.696 106.167 252.239 106.624C251.791 107.072 251.567 107.702 251.567 108.514V108.64C251.567 109.452 251.791 110.087 252.239 110.544C252.696 110.992 253.275 111.216 253.975 111.216ZM262.929 112.196C262.238 112.196 261.632 112.051 261.109 111.762C260.586 111.463 260.18 111.048 259.891 110.516C259.602 109.984 259.457 109.368 259.457 108.668V108.5C259.457 107.791 259.602 107.17 259.891 106.638C260.18 106.106 260.582 105.695 261.095 105.406C261.608 105.107 262.196 104.958 262.859 104.958C263.503 104.958 264.072 105.098 264.567 105.378C265.062 105.649 265.449 106.041 265.729 106.554C266.009 107.067 266.149 107.669 266.149 108.36V108.864H260.563C260.591 109.601 260.829 110.18 261.277 110.6C261.725 111.011 262.285 111.216 262.957 111.216C263.545 111.216 263.998 111.081 264.315 110.81C264.632 110.539 264.875 110.217 265.043 109.844L265.995 110.306C265.855 110.595 265.659 110.885 265.407 111.174C265.164 111.463 264.842 111.706 264.441 111.902C264.049 112.098 263.545 112.196 262.929 112.196ZM260.577 107.954H265.029C264.992 107.319 264.772 106.825 264.371 106.47C263.979 106.115 263.475 105.938 262.859 105.938C262.234 105.938 261.72 106.115 261.319 106.47C260.918 106.825 260.67 107.319 260.577 107.954ZM272.626 112L271.254 105.154H272.374L273.508 111.258H273.704L275.202 105.154H277.036L278.534 111.258H278.73L279.864 105.154H280.984L279.612 112H277.722L276.21 105.896H276.028L274.516 112H272.626ZM282.885 112V105.154H283.991V112H282.885ZM283.445 104.09C283.202 104.09 282.997 104.011 282.829 103.852C282.67 103.693 282.591 103.493 282.591 103.25C282.591 102.998 282.67 102.793 282.829 102.634C282.997 102.475 283.202 102.396 283.445 102.396C283.687 102.396 283.888 102.475 284.047 102.634C284.205 102.793 284.285 102.998 284.285 103.25C284.285 103.493 284.205 103.693 284.047 103.852C283.888 104.011 283.687 104.09 283.445 104.09ZM288.836 112C288.444 112 288.141 111.893 287.926 111.678C287.721 111.463 287.618 111.169 287.618 110.796V106.12H285.56V105.154H287.618V102.718H288.724V105.154H290.964V106.12H288.724V110.628C288.724 110.908 288.86 111.048 289.13 111.048H290.656V112H288.836ZM292.756 112V102.2H293.862V106.246H294.058C294.151 106.041 294.291 105.849 294.478 105.672C294.674 105.485 294.921 105.331 295.22 105.21C295.528 105.089 295.915 105.028 296.382 105.028C296.895 105.028 297.352 105.14 297.754 105.364C298.164 105.579 298.491 105.896 298.734 106.316C298.976 106.727 299.098 107.24 299.098 107.856V112H297.992V107.94C297.992 107.259 297.819 106.764 297.474 106.456C297.138 106.148 296.68 105.994 296.102 105.994C295.439 105.994 294.898 106.209 294.478 106.638C294.067 107.067 293.862 107.707 293.862 108.556V112H292.756Z" fill="black"/>
<path d="M336.547 94V92.824C336.547 92.1427 336.659 91.578 336.883 91.13C337.107 90.6727 337.429 90.2993 337.849 90.01C338.278 89.7113 338.801 89.4687 339.417 89.282L340.355 88.988C340.7 88.876 340.99 88.7407 341.223 88.582C341.456 88.414 341.634 88.2133 341.755 87.98C341.886 87.7467 341.951 87.4807 341.951 87.182V87.126C341.951 86.6593 341.792 86.2907 341.475 86.02C341.158 85.74 340.724 85.6 340.173 85.6C339.632 85.6 339.193 85.7493 338.857 86.048C338.53 86.3373 338.367 86.7573 338.367 87.308V87.56H336.575V87.336C336.575 86.6267 336.734 86.0247 337.051 85.53C337.368 85.0353 337.798 84.6573 338.339 84.396C338.89 84.1347 339.501 84.004 340.173 84.004C340.845 84.004 341.452 84.1347 341.993 84.396C342.534 84.648 342.959 85.0073 343.267 85.474C343.584 85.9313 343.743 86.4727 343.743 87.098V87.238C343.743 87.8633 343.612 88.3953 343.351 88.834C343.099 89.2633 342.754 89.618 342.315 89.898C341.876 90.1687 341.377 90.3927 340.817 90.57L339.921 90.85C339.52 90.9713 339.207 91.1067 338.983 91.256C338.759 91.396 338.6 91.5547 338.507 91.732C338.423 91.9 338.381 92.1053 338.381 92.348V92.404H343.659V94H336.547ZM347.883 94V85.516H347.631L346.315 88.624H344.439L346.441 84.2H349.675V94H347.883ZM354.466 94.196C353.56 94.196 352.818 94 352.24 93.608C351.661 93.216 351.311 92.656 351.19 91.928L352.814 91.508C352.879 91.8347 352.986 92.0913 353.136 92.278C353.294 92.4647 353.486 92.6 353.71 92.684C353.943 92.7587 354.195 92.796 354.466 92.796C354.876 92.796 355.18 92.726 355.376 92.586C355.572 92.4367 355.67 92.2547 355.67 92.04C355.67 91.8253 355.576 91.662 355.39 91.55C355.203 91.4287 354.904 91.3307 354.494 91.256L354.102 91.186C353.616 91.0927 353.173 90.9667 352.772 90.808C352.37 90.64 352.048 90.4113 351.806 90.122C351.563 89.8327 351.442 89.4593 351.442 89.002C351.442 88.3113 351.694 87.784 352.198 87.42C352.702 87.0467 353.364 86.86 354.186 86.86C354.96 86.86 355.604 87.0327 356.118 87.378C356.631 87.7233 356.967 88.176 357.126 88.736L355.488 89.24C355.413 88.8853 355.259 88.6333 355.026 88.484C354.802 88.3347 354.522 88.26 354.186 88.26C353.85 88.26 353.593 88.3207 353.416 88.442C353.238 88.554 353.15 88.7127 353.15 88.918C353.15 89.142 353.243 89.31 353.43 89.422C353.616 89.5247 353.868 89.604 354.186 89.66L354.578 89.73C355.1 89.8233 355.572 89.9493 355.992 90.108C356.421 90.2573 356.757 90.4767 357 90.766C357.252 91.046 357.378 91.4287 357.378 91.914C357.378 92.642 357.112 93.2067 356.58 93.608C356.057 94 355.352 94.196 354.466 94.196ZM361.447 94C360.989 94 360.616 93.86 360.327 93.58C360.047 93.2907 359.907 92.908 359.907 92.432V88.512H358.171V87.056H359.907V84.9H361.671V87.056H363.575V88.512H361.671V92.124C361.671 92.404 361.801 92.544 362.063 92.544H363.407V94H361.447ZM172.242 112.196C171.57 112.196 170.959 112.056 170.408 111.776C169.867 111.496 169.437 111.09 169.12 110.558C168.803 110.026 168.644 109.382 168.644 108.626V108.43C168.644 107.674 168.803 107.03 169.12 106.498C169.437 105.966 169.867 105.56 170.408 105.28C170.959 105 171.57 104.86 172.242 104.86C172.905 104.86 173.474 104.977 173.95 105.21C174.426 105.443 174.809 105.765 175.098 106.176C175.397 106.577 175.593 107.035 175.686 107.548L173.978 107.912C173.941 107.632 173.857 107.38 173.726 107.156C173.595 106.932 173.409 106.755 173.166 106.624C172.933 106.493 172.639 106.428 172.284 106.428C171.929 106.428 171.607 106.507 171.318 106.666C171.038 106.815 170.814 107.044 170.646 107.352C170.487 107.651 170.408 108.019 170.408 108.458V108.598C170.408 109.037 170.487 109.41 170.646 109.718C170.814 110.017 171.038 110.245 171.318 110.404C171.607 110.553 171.929 110.628 172.284 110.628C172.816 110.628 173.217 110.493 173.488 110.222C173.768 109.942 173.945 109.578 174.02 109.13L175.728 109.536C175.607 110.031 175.397 110.483 175.098 110.894C174.809 111.295 174.426 111.613 173.95 111.846C173.474 112.079 172.905 112.196 172.242 112.196ZM180.347 112.196C179.656 112.196 179.045 112.051 178.513 111.762C177.99 111.463 177.58 111.048 177.281 110.516C176.992 109.975 176.847 109.34 176.847 108.612V108.444C176.847 107.716 176.992 107.086 177.281 106.554C177.57 106.013 177.976 105.597 178.499 105.308C179.022 105.009 179.628 104.86 180.319 104.86C181 104.86 181.593 105.014 182.097 105.322C182.601 105.621 182.993 106.041 183.273 106.582C183.553 107.114 183.693 107.735 183.693 108.444V109.046H178.639C178.658 109.522 178.835 109.909 179.171 110.208C179.507 110.507 179.918 110.656 180.403 110.656C180.898 110.656 181.262 110.549 181.495 110.334C181.728 110.119 181.906 109.881 182.027 109.62L183.469 110.376C183.338 110.619 183.147 110.885 182.895 111.174C182.652 111.454 182.326 111.697 181.915 111.902C181.504 112.098 180.982 112.196 180.347 112.196ZM178.653 107.73H181.901C181.864 107.329 181.7 107.007 181.411 106.764C181.131 106.521 180.762 106.4 180.305 106.4C179.829 106.4 179.451 106.521 179.171 106.764C178.891 107.007 178.718 107.329 178.653 107.73ZM185.263 112V105.056H186.999V105.966H187.251C187.363 105.723 187.573 105.495 187.881 105.28C188.189 105.056 188.656 104.944 189.281 104.944C189.823 104.944 190.294 105.07 190.695 105.322C191.106 105.565 191.423 105.905 191.647 106.344C191.871 106.773 191.983 107.277 191.983 107.856V112H190.219V107.996C190.219 107.473 190.089 107.081 189.827 106.82C189.575 106.559 189.211 106.428 188.735 106.428C188.194 106.428 187.774 106.61 187.475 106.974C187.177 107.329 187.027 107.828 187.027 108.472V112H185.263ZM196.359 112C195.901 112 195.528 111.86 195.239 111.58C194.959 111.291 194.819 110.908 194.819 110.432V106.512H193.083V105.056H194.819V102.9H196.583V105.056H198.487V106.512H196.583V110.124C196.583 110.404 196.713 110.544 196.975 110.544H198.319V112H196.359ZM202.73 112.112C202.188 112.112 201.712 111.991 201.302 111.748C200.9 111.496 200.588 111.151 200.364 110.712C200.14 110.273 200.028 109.769 200.028 109.2V105.056H201.792V109.06C201.792 109.583 201.918 109.975 202.17 110.236C202.431 110.497 202.8 110.628 203.276 110.628C203.817 110.628 204.237 110.451 204.536 110.096C204.834 109.732 204.984 109.228 204.984 108.584V105.056H206.748V112H205.012V111.09H204.76C204.648 111.323 204.438 111.552 204.13 111.776C203.822 112 203.355 112.112 202.73 112.112ZM208.71 112V105.056H210.446V105.84H210.698C210.801 105.56 210.969 105.355 211.202 105.224C211.445 105.093 211.725 105.028 212.042 105.028H212.882V106.596H212.014C211.566 106.596 211.198 106.717 210.908 106.96C210.619 107.193 210.474 107.557 210.474 108.052V112H208.71ZM215.017 114.8V113.26H218.797C219.059 113.26 219.189 113.12 219.189 112.84V111.09H218.937C218.863 111.249 218.746 111.407 218.587 111.566C218.429 111.725 218.214 111.855 217.943 111.958C217.673 112.061 217.327 112.112 216.907 112.112C216.366 112.112 215.89 111.991 215.479 111.748C215.078 111.496 214.765 111.151 214.541 110.712C214.317 110.273 214.205 109.769 214.205 109.2V105.056H215.969V109.06C215.969 109.583 216.095 109.975 216.347 110.236C216.609 110.497 216.977 110.628 217.453 110.628C217.995 110.628 218.415 110.451 218.713 110.096C219.012 109.732 219.161 109.228 219.161 108.584V105.056H220.925V113.232C220.925 113.708 220.785 114.086 220.505 114.366C220.225 114.655 219.852 114.8 219.385 114.8H215.017ZM223.994 112.196C223.621 112.196 223.304 112.075 223.042 111.832C222.79 111.58 222.664 111.258 222.664 110.866C222.664 110.474 222.79 110.157 223.042 109.914C223.304 109.662 223.621 109.536 223.994 109.536C224.377 109.536 224.694 109.662 224.946 109.914C225.198 110.157 225.324 110.474 225.324 110.866C225.324 111.258 225.198 111.58 224.946 111.832C224.694 112.075 224.377 112.196 223.994 112.196Z" fill="url(#paint4_linear_2_47)"/>
<path d="M308.074 112.196C307.318 112.196 306.651 112.061 306.072 111.79C305.493 111.519 305.041 111.132 304.714 110.628C304.387 110.124 304.224 109.517 304.224 108.808V108.416H306.044V108.808C306.044 109.396 306.226 109.839 306.59 110.138C306.954 110.427 307.449 110.572 308.074 110.572C308.709 110.572 309.18 110.446 309.488 110.194C309.805 109.942 309.964 109.62 309.964 109.228C309.964 108.957 309.885 108.738 309.726 108.57C309.577 108.402 309.353 108.267 309.054 108.164C308.765 108.052 308.41 107.949 307.99 107.856L307.668 107.786C306.996 107.637 306.417 107.45 305.932 107.226C305.456 106.993 305.087 106.689 304.826 106.316C304.574 105.943 304.448 105.457 304.448 104.86C304.448 104.263 304.588 103.754 304.868 103.334C305.157 102.905 305.559 102.578 306.072 102.354C306.595 102.121 307.206 102.004 307.906 102.004C308.606 102.004 309.227 102.125 309.768 102.368C310.319 102.601 310.748 102.956 311.056 103.432C311.373 103.899 311.532 104.487 311.532 105.196V105.616H309.712V105.196C309.712 104.823 309.637 104.524 309.488 104.3C309.348 104.067 309.143 103.899 308.872 103.796C308.601 103.684 308.279 103.628 307.906 103.628C307.346 103.628 306.931 103.735 306.66 103.95C306.399 104.155 306.268 104.44 306.268 104.804C306.268 105.047 306.329 105.252 306.45 105.42C306.581 105.588 306.772 105.728 307.024 105.84C307.276 105.952 307.598 106.05 307.99 106.134L308.312 106.204C309.012 106.353 309.619 106.545 310.132 106.778C310.655 107.011 311.061 107.319 311.35 107.702C311.639 108.085 311.784 108.575 311.784 109.172C311.784 109.769 311.63 110.297 311.322 110.754C311.023 111.202 310.594 111.557 310.034 111.818C309.483 112.07 308.83 112.196 308.074 112.196ZM313.778 112L312.798 105.056H314.548L315.164 110.81H315.416L316.312 105.056H319.14L320.036 110.81H320.288L320.904 105.056H322.654L321.674 112H318.748L317.852 106.246H317.6L316.704 112H313.778ZM324.197 112V105.056H325.961V112H324.197ZM325.079 104.244C324.761 104.244 324.491 104.141 324.267 103.936C324.052 103.731 323.945 103.46 323.945 103.124C323.945 102.788 324.052 102.517 324.267 102.312C324.491 102.107 324.761 102.004 325.079 102.004C325.405 102.004 325.676 102.107 325.891 102.312C326.105 102.517 326.213 102.788 326.213 103.124C326.213 103.46 326.105 103.731 325.891 103.936C325.676 104.141 325.405 104.244 325.079 104.244ZM329.064 112V106.512H327.3V105.056H329.064V103.768C329.064 103.292 329.204 102.914 329.484 102.634C329.773 102.345 330.146 102.2 330.604 102.2H332.424V103.656H331.22C330.958 103.656 330.828 103.796 330.828 104.076V105.056H332.648V106.512H330.828V112H329.064ZM336.536 112C336.079 112 335.706 111.86 335.416 111.58C335.136 111.291 334.996 110.908 334.996 110.432V106.512H333.26V105.056H334.996V102.9H336.76V105.056H338.664V106.512H336.76V110.124C336.76 110.404 336.891 110.544 337.152 110.544H338.496V112H336.536ZM341.367 112.196C340.994 112.196 340.677 112.075 340.415 111.832C340.163 111.58 340.037 111.258 340.037 110.866C340.037 110.474 340.163 110.157 340.415 109.914C340.677 109.662 340.994 109.536 341.367 109.536C341.75 109.536 342.067 109.662 342.319 109.914C342.571 110.157 342.697 110.474 342.697 110.866C342.697 111.258 342.571 111.58 342.319 111.832C342.067 112.075 341.75 112.196 341.367 112.196Z" fill="url(#paint5_linear_2_47)"/>
<defs>
<linearGradient id="paint0_linear_2_47" x1="54" y1="26" x2="54" y2="84" gradientUnits="userSpaceOnUse">
<stop stop-color="#FF00D6"/>
<stop offset="1" stop-color="#0500FF"/>
</linearGradient>
<linearGradient id="paint1_linear_2_47" x1="93" y1="62" x2="93" y2="120" gradientUnits="userSpaceOnUse">
<stop stop-color="#717171"/>
<stop offset="1" stop-color="#D1D1D1"/>
</linearGradient>
<linearGradient id="paint2_linear_2_47" x1="91" y1="46" x2="91" y2="73" gradientUnits="userSpaceOnUse">
<stop stop-color="#42FF00"/>
<stop offset="1" stop-color="#00FF66"/>
</linearGradient>
<linearGradient id="paint3_linear_2_47" x1="168" y1="39.5" x2="251.5" y2="62.5" gradientUnits="userSpaceOnUse">
<stop stop-color="#FF00D6"/>
<stop offset="1" stop-color="#0500FF"/>
</linearGradient>
<linearGradient id="paint4_linear_2_47" x1="173" y1="89.5" x2="374" y2="94" gradientUnits="userSpaceOnUse">
<stop stop-color="#FF00D6"/>
<stop offset="0.244839" stop-color="#0500FF"/>
<stop offset="0.701965" stop-color="#FF00D6"/>
<stop offset="1" stop-color="#0500FF"/>
</linearGradient>
<linearGradient id="paint5_linear_2_47" x1="296" y1="117" x2="347.5" y2="106" gradientUnits="userSpaceOnUse">
<stop stop-color="#FF0000"/>
<stop offset="1" stop-color="#FFC700"/>
</linearGradient>
</defs>
</svg>
