<svg width="450" height="150" viewBox="0 0 450 150" fill="none" xmlns="http://www.w3.org/2000/svg">
<rect width="450" height="150" rx="5" fill="white"/>
<path d="M212.208 92V86.432H216.624V63.968H212.208V58.4H229.488C231.536 58.4 233.312 58.752 234.816 59.456C236.352 60.128 237.536 61.104 238.368 62.384C239.232 63.632 239.664 65.136 239.664 66.896V67.376C239.664 68.912 239.376 70.176 238.8 71.168C238.224 72.128 237.536 72.88 236.736 73.424C235.968 73.936 235.232 74.304 234.528 74.528V75.392C235.232 75.584 236 75.952 236.832 76.496C237.664 77.008 238.368 77.76 238.944 78.752C239.552 79.744 239.856 81.04 239.856 82.64V83.12C239.856 84.976 239.424 86.576 238.56 87.92C237.696 89.232 236.496 90.24 234.96 90.944C233.456 91.648 231.696 92 229.68 92H212.208ZM222.96 86.24H228.912C230.288 86.24 231.392 85.904 232.224 85.232C233.088 84.56 233.52 83.6 233.52 82.352V81.872C233.52 80.624 233.104 79.664 232.272 78.992C231.44 78.32 230.32 77.984 228.912 77.984H222.96V86.24ZM222.96 72.224H228.816C230.128 72.224 231.2 71.888 232.032 71.216C232.896 70.544 233.328 69.616 233.328 68.432V67.952C233.328 66.736 232.912 65.808 232.08 65.168C231.248 64.496 230.16 64.16 228.816 64.16H222.96V72.224ZM254.307 92.384C252.451 92.384 250.819 91.968 249.411 91.136C248.035 90.272 246.963 89.088 246.195 87.584C245.427 86.08 245.043 84.352 245.043 82.4V68.192H251.091V81.92C251.091 83.712 251.523 85.056 252.387 85.952C253.283 86.848 254.547 87.296 256.179 87.296C258.035 87.296 259.475 86.688 260.499 85.472C261.523 84.224 262.035 82.496 262.035 80.288V68.192H268.083V92H262.131V88.88H261.267C260.883 89.68 260.163 90.464 259.107 91.232C258.051 92 256.451 92.384 254.307 92.384ZM274.813 92V68.192H280.861V92H274.813ZM277.837 65.408C276.749 65.408 275.821 65.056 275.053 64.352C274.317 63.648 273.949 62.72 273.949 61.568C273.949 60.416 274.317 59.488 275.053 58.784C275.821 58.08 276.749 57.728 277.837 57.728C278.957 57.728 279.885 58.08 280.621 58.784C281.357 59.488 281.725 60.416 281.725 61.568C281.725 62.72 281.357 63.648 280.621 64.352C279.885 65.056 278.957 65.408 277.837 65.408ZM287.563 92V58.4H293.611V92H287.563ZM309.913 92.672C308.025 92.672 306.249 92.208 304.585 91.28C302.953 90.32 301.641 88.928 300.649 87.104C299.657 85.28 299.161 83.072 299.161 80.48V79.712C299.161 77.12 299.657 74.912 300.649 73.088C301.641 71.264 302.953 69.888 304.585 68.96C306.217 68 307.993 67.52 309.913 67.52C311.353 67.52 312.553 67.696 313.513 68.048C314.505 68.368 315.305 68.784 315.913 69.296C316.521 69.808 316.985 70.352 317.305 70.928H318.169V58.4H324.217V92H318.265V89.12H317.401C316.857 90.016 316.009 90.832 314.857 91.568C313.737 92.304 312.089 92.672 309.913 92.672ZM311.737 87.392C313.593 87.392 315.145 86.8 316.393 85.616C317.641 84.4 318.265 82.64 318.265 80.336V79.856C318.265 77.552 317.641 75.808 316.393 74.624C315.177 73.408 313.625 72.8 311.737 72.8C309.881 72.8 308.329 73.408 307.081 74.624C305.833 75.808 305.209 77.552 305.209 79.856V80.336C305.209 82.64 305.833 84.4 307.081 85.616C308.329 86.8 309.881 87.392 311.737 87.392ZM330.923 92V68.192H336.971V92H330.923ZM333.947 65.408C332.859 65.408 331.931 65.056 331.163 64.352C330.427 63.648 330.059 62.72 330.059 61.568C330.059 60.416 330.427 59.488 331.163 58.784C331.931 58.08 332.859 57.728 333.947 57.728C335.067 57.728 335.995 58.08 336.731 58.784C337.467 59.488 337.835 60.416 337.835 61.568C337.835 62.72 337.467 63.648 336.731 64.352C335.995 65.056 335.067 65.408 333.947 65.408ZM343.673 92V68.192H349.625V71.312H350.489C350.873 70.48 351.593 69.696 352.648 68.96C353.705 68.192 355.305 67.808 357.449 67.808C359.305 67.808 360.921 68.24 362.297 69.104C363.705 69.936 364.793 71.104 365.561 72.608C366.329 74.08 366.713 75.808 366.713 77.792V92H360.665V78.272C360.665 76.48 360.217 75.136 359.321 74.24C358.457 73.344 357.209 72.896 355.577 72.896C353.721 72.896 352.281 73.52 351.257 74.768C350.233 75.984 349.721 77.696 349.721 79.904V92H343.673ZM372.099 80.192V79.424C372.099 76.928 372.595 74.8 373.587 73.04C374.579 71.248 375.891 69.888 377.523 68.96C379.187 68 380.995 67.52 382.947 67.52C385.123 67.52 386.771 67.904 387.891 68.672C389.011 69.44 389.827 70.24 390.339 71.072H391.203V68.192H397.155V96.224C397.155 97.856 396.675 99.152 395.715 100.112C394.755 101.104 393.475 101.6 391.875 101.6H375.939V96.32H389.763C390.659 96.32 391.107 95.84 391.107 94.88V88.688H390.243C389.923 89.2 389.475 89.728 388.899 90.272C388.323 90.784 387.555 91.216 386.595 91.568C385.635 91.92 384.419 92.096 382.947 92.096C380.995 92.096 379.187 91.632 377.523 90.704C375.891 89.744 374.579 88.384 373.587 86.624C372.595 84.832 372.099 82.688 372.099 80.192ZM384.675 86.816C386.531 86.816 388.083 86.224 389.331 85.04C390.579 83.856 391.203 82.192 391.203 80.048V79.568C391.203 77.392 390.579 75.728 389.331 74.576C388.115 73.392 386.563 72.8 384.675 72.8C382.819 72.8 381.267 73.392 380.019 74.576C378.771 75.728 378.147 77.392 378.147 79.568V80.048C378.147 82.192 378.771 83.856 380.019 85.04C381.267 86.224 382.819 86.816 384.675 86.816Z" fill="url(#paint0_linear_2_134)"/>
<rect x="34" y="31" width="71.887" height="49.5773" rx="8" fill="#1A1A1A" stroke="#8B8B8B" stroke-width="4"/>
<path d="M41.498 42V39.066H41.972V42H41.498ZM41.738 38.61C41.634 38.61 41.546 38.576 41.474 38.508C41.406 38.44 41.372 38.354 41.372 38.25C41.372 38.142 41.406 38.054 41.474 37.986C41.546 37.918 41.634 37.884 41.738 37.884C41.842 37.884 41.928 37.918 41.996 37.986C42.064 38.054 42.098 38.142 42.098 38.25C42.098 38.354 42.064 38.44 41.996 38.508C41.928 38.576 41.842 38.61 41.738 38.61ZM42.9687 42V39.066H43.4307V39.432H43.5147C43.5707 39.328 43.6627 39.232 43.7907 39.144C43.9187 39.056 44.0987 39.012 44.3307 39.012C44.5587 39.012 44.7427 39.062 44.8827 39.162C45.0267 39.262 45.1307 39.384 45.1947 39.528H45.2787C45.3467 39.384 45.4487 39.262 45.5847 39.162C45.7247 39.062 45.9187 39.012 46.1667 39.012C46.3627 39.012 46.5347 39.052 46.6827 39.132C46.8307 39.212 46.9467 39.328 47.0307 39.48C47.1187 39.628 47.1627 39.806 47.1627 40.014V42H46.6887V40.056C46.6887 39.86 46.6307 39.706 46.5147 39.594C46.4027 39.478 46.2447 39.42 46.0407 39.42C45.8247 39.42 45.6467 39.49 45.5067 39.63C45.3707 39.77 45.3027 39.972 45.3027 40.236V42H44.8287V40.056C44.8287 39.86 44.7707 39.706 44.6547 39.594C44.5427 39.478 44.3847 39.42 44.1807 39.42C43.9647 39.42 43.7867 39.49 43.6467 39.63C43.5107 39.77 43.4427 39.972 43.4427 40.236V42H42.9687ZM48.1308 43.2V39.066H48.5928V39.552H48.6768C48.7528 39.404 48.8748 39.272 49.0428 39.156C49.2148 39.04 49.4528 38.982 49.7568 38.982C50.0088 38.982 50.2388 39.044 50.4468 39.168C50.6588 39.288 50.8268 39.46 50.9508 39.684C51.0788 39.908 51.1428 40.178 51.1428 40.494V40.572C51.1428 40.884 51.0808 41.154 50.9568 41.382C50.8328 41.61 50.6648 41.784 50.4528 41.904C50.2448 42.024 50.0128 42.084 49.7568 42.084C49.5528 42.084 49.3788 42.056 49.2348 42C49.0948 41.948 48.9808 41.88 48.8928 41.796C48.8048 41.712 48.7368 41.626 48.6888 41.538H48.6048V43.2H48.1308ZM49.6308 41.664C49.9348 41.664 50.1808 41.568 50.3688 41.376C50.5608 41.18 50.6568 40.908 50.6568 40.56V40.506C50.6568 40.158 50.5608 39.888 50.3688 39.696C50.1808 39.5 49.9348 39.402 49.6308 39.402C49.3308 39.402 49.0828 39.5 48.8868 39.696C48.6948 39.888 48.5988 40.158 48.5988 40.506V40.56C48.5988 40.908 48.6948 41.18 48.8868 41.376C49.0828 41.568 49.3308 41.664 49.6308 41.664ZM53.3481 42.084C53.0521 42.084 52.7901 42.022 52.5621 41.898C52.3381 41.774 52.1621 41.6 52.0341 41.376C51.9101 41.148 51.8481 40.88 51.8481 40.572V40.494C51.8481 40.19 51.9101 39.924 52.0341 39.696C52.1621 39.468 52.3381 39.292 52.5621 39.168C52.7901 39.044 53.0521 38.982 53.3481 38.982C53.6441 38.982 53.9041 39.044 54.1281 39.168C54.3561 39.292 54.5321 39.468 54.6561 39.696C54.7841 39.924 54.8481 40.19 54.8481 40.494V40.572C54.8481 40.88 54.7841 41.148 54.6561 41.376C54.5321 41.6 54.3561 41.774 54.1281 41.898C53.9041 42.022 53.6441 42.084 53.3481 42.084ZM53.3481 41.658C53.6601 41.658 53.9081 41.56 54.0921 41.364C54.2801 41.164 54.3741 40.896 54.3741 40.56V40.506C54.3741 40.17 54.2801 39.904 54.0921 39.708C53.9081 39.508 53.6601 39.408 53.3481 39.408C53.0401 39.408 52.7921 39.508 52.6041 39.708C52.4161 39.904 52.3221 40.17 52.3221 40.506V40.56C52.3221 40.896 52.4161 41.164 52.6041 41.364C52.7921 41.56 53.0401 41.658 53.3481 41.658ZM55.7011 42V39.066H56.1631V39.426H56.2471C56.2991 39.298 56.3791 39.204 56.4871 39.144C56.5951 39.084 56.7371 39.054 56.9131 39.054H57.2611V39.486H56.8831C56.6711 39.486 56.4991 39.546 56.3671 39.666C56.2391 39.782 56.1751 39.964 56.1751 40.212V42H55.7011ZM59.0428 42C58.8748 42 58.7448 41.954 58.6528 41.862C58.5648 41.77 58.5208 41.644 58.5208 41.484V39.48H57.6388V39.066H58.5208V38.022H58.9948V39.066H59.9548V39.48H58.9948V41.412C58.9948 41.532 59.0528 41.592 59.1688 41.592H59.8228V42H59.0428ZM42.074 58V55.48H41.174V55.066H42.074V54.316C42.074 54.156 42.118 54.03 42.206 53.938C42.298 53.846 42.428 53.8 42.596 53.8H43.334V54.208H42.728C42.608 54.208 42.548 54.268 42.548 54.388V55.066H43.472V55.48H42.548V58H42.074ZM45.2743 58.054C45.0623 58.054 44.8663 58.008 44.6863 57.916C44.5103 57.824 44.3703 57.688 44.2663 57.508C44.1663 57.324 44.1163 57.102 44.1163 56.842V55.066H44.5903V56.806C44.5903 57.098 44.6623 57.31 44.8063 57.442C44.9543 57.574 45.1523 57.64 45.4003 57.64C45.6803 57.64 45.9103 57.548 46.0903 57.364C46.2703 57.18 46.3603 56.906 46.3603 56.542V55.066H46.8343V58H46.3723V57.502H46.2883C46.2243 57.642 46.1143 57.77 45.9583 57.886C45.8023 57.998 45.5743 58.054 45.2743 58.054ZM47.8261 58V55.066H48.2881V55.564H48.3721C48.4361 55.424 48.5441 55.298 48.6961 55.186C48.8521 55.07 49.0801 55.012 49.3801 55.012C49.6001 55.012 49.7961 55.058 49.9681 55.15C50.1441 55.242 50.2841 55.378 50.3881 55.558C50.4921 55.738 50.5441 55.96 50.5441 56.224V58H50.0701V56.26C50.0701 55.968 49.9961 55.756 49.8481 55.624C49.7041 55.492 49.5081 55.426 49.2601 55.426C48.9761 55.426 48.7441 55.518 48.5641 55.702C48.3881 55.886 48.3001 56.16 48.3001 56.524V58H47.8261ZM52.8558 58.084C52.5718 58.084 52.3158 58.024 52.0878 57.904C51.8638 57.78 51.6858 57.604 51.5538 57.376C51.4258 57.148 51.3618 56.878 51.3618 56.566V56.5C51.3618 56.184 51.4258 55.914 51.5538 55.69C51.6858 55.462 51.8638 55.288 52.0878 55.168C52.3158 55.044 52.5718 54.982 52.8558 54.982C53.1358 54.982 53.3738 55.034 53.5698 55.138C53.7698 55.242 53.9258 55.38 54.0378 55.552C54.1538 55.724 54.2278 55.908 54.2598 56.104L53.7978 56.2C53.7778 56.056 53.7298 55.924 53.6538 55.804C53.5818 55.684 53.4798 55.588 53.3478 55.516C53.2158 55.444 53.0538 55.408 52.8618 55.408C52.6658 55.408 52.4898 55.452 52.3338 55.54C52.1818 55.628 52.0598 55.754 51.9678 55.918C51.8798 56.082 51.8358 56.278 51.8358 56.506V56.56C51.8358 56.788 51.8798 56.984 51.9678 57.148C52.0598 57.312 52.1818 57.438 52.3338 57.526C52.4898 57.614 52.6658 57.658 52.8618 57.658C53.1538 57.658 53.3758 57.582 53.5278 57.43C53.6838 57.278 53.7798 57.09 53.8158 56.866L54.2838 56.968C54.2398 57.16 54.1598 57.342 54.0438 57.514C53.9278 57.686 53.7698 57.824 53.5698 57.928C53.3738 58.032 53.1358 58.084 52.8558 58.084ZM41.498 74V69.8H41.972V74H41.498ZM44.3127 74.084C44.0167 74.084 43.7567 74.022 43.5327 73.898C43.3087 73.77 43.1347 73.592 43.0107 73.364C42.8867 73.136 42.8247 72.872 42.8247 72.572V72.5C42.8247 72.196 42.8867 71.93 43.0107 71.702C43.1347 71.474 43.3067 71.298 43.5267 71.174C43.7467 71.046 43.9987 70.982 44.2827 70.982C44.5587 70.982 44.8027 71.042 45.0147 71.162C45.2267 71.278 45.3927 71.446 45.5127 71.666C45.6327 71.886 45.6927 72.144 45.6927 72.44V72.656H43.2987C43.3107 72.972 43.4127 73.22 43.6047 73.4C43.7967 73.576 44.0367 73.664 44.3247 73.664C44.5767 73.664 44.7707 73.606 44.9067 73.49C45.0427 73.374 45.1467 73.236 45.2187 73.076L45.6267 73.274C45.5667 73.398 45.4827 73.522 45.3747 73.646C45.2707 73.77 45.1327 73.874 44.9607 73.958C44.7927 74.042 44.5767 74.084 44.3127 74.084ZM43.3047 72.266H45.2127C45.1967 71.994 45.1027 71.782 44.9307 71.63C44.7627 71.478 44.5467 71.402 44.2827 71.402C44.0147 71.402 43.7947 71.478 43.6227 71.63C43.4507 71.782 43.3447 71.994 43.3047 72.266ZM47.4764 74C47.3084 74 47.1784 73.954 47.0864 73.862C46.9984 73.77 46.9544 73.644 46.9544 73.484V71.48H46.0724V71.066H46.9544V70.022H47.4284V71.066H48.3884V71.48H47.4284V73.412C47.4284 73.532 47.4864 73.592 47.6024 73.592H48.2564V74H47.4764Z" fill="#FF6900"/>
<path d="M62.2456 42V37.8H64.7836V38.256H62.7496V39.666H64.6216V40.122H62.7496V42H62.2456ZM66.8247 42.084C66.5287 42.084 66.2667 42.022 66.0387 41.898C65.8147 41.774 65.6387 41.6 65.5107 41.376C65.3867 41.148 65.3247 40.88 65.3247 40.572V40.494C65.3247 40.19 65.3867 39.924 65.5107 39.696C65.6387 39.468 65.8147 39.292 66.0387 39.168C66.2667 39.044 66.5287 38.982 66.8247 38.982C67.1207 38.982 67.3807 39.044 67.6047 39.168C67.8327 39.292 68.0087 39.468 68.1327 39.696C68.2607 39.924 68.3247 40.19 68.3247 40.494V40.572C68.3247 40.88 68.2607 41.148 68.1327 41.376C68.0087 41.6 67.8327 41.774 67.6047 41.898C67.3807 42.022 67.1207 42.084 66.8247 42.084ZM66.8247 41.658C67.1367 41.658 67.3847 41.56 67.5687 41.364C67.7567 41.164 67.8507 40.896 67.8507 40.56V40.506C67.8507 40.17 67.7567 39.904 67.5687 39.708C67.3847 39.508 67.1367 39.408 66.8247 39.408C66.5167 39.408 66.2687 39.508 66.0807 39.708C65.8927 39.904 65.7987 40.17 65.7987 40.506V40.56C65.7987 40.896 65.8927 41.164 66.0807 41.364C66.2687 41.56 66.5167 41.658 66.8247 41.658ZM70.2997 42.054C70.0877 42.054 69.8917 42.008 69.7117 41.916C69.5357 41.824 69.3957 41.688 69.2917 41.508C69.1917 41.324 69.1417 41.102 69.1417 40.842V39.066H69.6157V40.806C69.6157 41.098 69.6877 41.31 69.8317 41.442C69.9797 41.574 70.1777 41.64 70.4257 41.64C70.7057 41.64 70.9357 41.548 71.1157 41.364C71.2957 41.18 71.3857 40.906 71.3857 40.542V39.066H71.8597V42H71.3977V41.502H71.3137C71.2497 41.642 71.1397 41.77 70.9837 41.886C70.8277 41.998 70.5997 42.054 70.2997 42.054ZM72.8515 42V39.066H73.3135V39.564H73.3975C73.4615 39.424 73.5695 39.298 73.7215 39.186C73.8775 39.07 74.1055 39.012 74.4055 39.012C74.6255 39.012 74.8215 39.058 74.9935 39.15C75.1695 39.242 75.3095 39.378 75.4135 39.558C75.5175 39.738 75.5695 39.96 75.5695 40.224V42H75.0955V40.26C75.0955 39.968 75.0215 39.756 74.8735 39.624C74.7295 39.492 74.5335 39.426 74.2855 39.426C74.0015 39.426 73.7695 39.518 73.5895 39.702C73.4135 39.886 73.3255 40.16 73.3255 40.524V42H72.8515ZM77.7732 42.084C77.5212 42.084 77.2892 42.024 77.0772 41.904C76.8652 41.784 76.6972 41.61 76.5732 41.382C76.4492 41.154 76.3872 40.884 76.3872 40.572V40.494C76.3872 40.182 76.4492 39.914 76.5732 39.69C76.6972 39.462 76.8632 39.288 77.0712 39.168C77.2832 39.044 77.5172 38.982 77.7732 38.982C77.9772 38.982 78.1492 39.01 78.2892 39.066C78.4332 39.118 78.5492 39.186 78.6372 39.27C78.7252 39.35 78.7932 39.436 78.8412 39.528H78.9252V37.8H79.3992V42H78.9372V41.514H78.8532C78.7732 41.662 78.6492 41.794 78.4812 41.91C78.3132 42.026 78.0772 42.084 77.7732 42.084ZM77.8992 41.664C78.2032 41.664 78.4492 41.568 78.6372 41.376C78.8292 41.18 78.9252 40.908 78.9252 40.56V40.506C78.9252 40.158 78.8292 39.888 78.6372 39.696C78.4492 39.5 78.2032 39.402 77.8992 39.402C77.5992 39.402 77.3512 39.5 77.1552 39.696C76.9632 39.888 76.8672 40.158 76.8672 40.506V40.56C76.8672 40.908 76.9632 41.18 77.1552 41.376C77.3512 41.568 77.5992 41.664 77.8992 41.664ZM81.2925 42.084C81.0885 42.084 80.9025 42.048 80.7345 41.976C80.5665 41.904 80.4345 41.8 80.3385 41.664C80.2425 41.528 80.1945 41.362 80.1945 41.166C80.1945 40.966 80.2425 40.802 80.3385 40.674C80.4345 40.542 80.5665 40.444 80.7345 40.38C80.9025 40.312 81.0905 40.278 81.2985 40.278H82.2885V40.062C82.2885 39.854 82.2265 39.69 82.1025 39.57C81.9825 39.45 81.8025 39.39 81.5625 39.39C81.3265 39.39 81.1425 39.448 81.0105 39.564C80.8785 39.676 80.7885 39.828 80.7405 40.02L80.2965 39.876C80.3445 39.712 80.4205 39.564 80.5245 39.432C80.6285 39.296 80.7665 39.188 80.9385 39.108C81.1145 39.024 81.3245 38.982 81.5685 38.982C81.9445 38.982 82.2365 39.08 82.4445 39.276C82.6525 39.468 82.7565 39.74 82.7565 40.092V41.418C82.7565 41.538 82.8125 41.598 82.9245 41.598H83.1945V42H82.7805C82.6485 42 82.5425 41.964 82.4625 41.892C82.3825 41.816 82.3425 41.716 82.3425 41.592V41.562H82.2705C82.2265 41.638 82.1665 41.718 82.0905 41.802C82.0185 41.882 81.9185 41.948 81.7905 42C81.6625 42.056 81.4965 42.084 81.2925 42.084ZM81.3465 41.676C81.6265 41.676 81.8525 41.594 82.0245 41.43C82.2005 41.262 82.2885 41.028 82.2885 40.728V40.662H81.3165C81.1285 40.662 80.9725 40.704 80.8485 40.788C80.7285 40.868 80.6685 40.99 80.6685 41.154C80.6685 41.318 80.7305 41.446 80.8545 41.538C80.9825 41.63 81.1465 41.676 81.3465 41.676ZM84.7303 42C84.5623 42 84.4323 41.954 84.3403 41.862C84.2523 41.77 84.2083 41.644 84.2083 41.484V39.48H83.3263V39.066H84.2083V38.022H84.6823V39.066H85.6423V39.48H84.6823V41.412C84.6823 41.532 84.7403 41.592 84.8563 41.592H85.5103V42H84.7303ZM86.4101 42V39.066H86.8841V42H86.4101ZM86.6501 38.61C86.5461 38.61 86.4581 38.576 86.3861 38.508C86.3181 38.44 86.2841 38.354 86.2841 38.25C86.2841 38.142 86.3181 38.054 86.3861 37.986C86.4581 37.918 86.5461 37.884 86.6501 37.884C86.7541 37.884 86.8401 37.918 86.9081 37.986C86.9761 38.054 87.0101 38.142 87.0101 38.25C87.0101 38.354 86.9761 38.44 86.9081 38.508C86.8401 38.576 86.7541 38.61 86.6501 38.61ZM89.2368 42.084C88.9408 42.084 88.6788 42.022 88.4508 41.898C88.2268 41.774 88.0508 41.6 87.9228 41.376C87.7988 41.148 87.7368 40.88 87.7368 40.572V40.494C87.7368 40.19 87.7988 39.924 87.9228 39.696C88.0508 39.468 88.2268 39.292 88.4508 39.168C88.6788 39.044 88.9408 38.982 89.2368 38.982C89.5328 38.982 89.7928 39.044 90.0168 39.168C90.2448 39.292 90.4208 39.468 90.5448 39.696C90.6728 39.924 90.7368 40.19 90.7368 40.494V40.572C90.7368 40.88 90.6728 41.148 90.5448 41.376C90.4208 41.6 90.2448 41.774 90.0168 41.898C89.7928 42.022 89.5328 42.084 89.2368 42.084ZM89.2368 41.658C89.5488 41.658 89.7968 41.56 89.9808 41.364C90.1688 41.164 90.2628 40.896 90.2628 40.56V40.506C90.2628 40.17 90.1688 39.904 89.9808 39.708C89.7968 39.508 89.5488 39.408 89.2368 39.408C88.9288 39.408 88.6808 39.508 88.4928 39.708C88.3048 39.904 88.2108 40.17 88.2108 40.506V40.56C88.2108 40.896 88.3048 41.164 88.4928 41.364C88.6808 41.56 88.9288 41.658 89.2368 41.658ZM91.5898 42V39.066H92.0518V39.564H92.1358C92.1998 39.424 92.3078 39.298 92.4598 39.186C92.6158 39.07 92.8438 39.012 93.1438 39.012C93.3638 39.012 93.5598 39.058 93.7318 39.15C93.9078 39.242 94.0478 39.378 94.1518 39.558C94.2558 39.738 94.3078 39.96 94.3078 40.224V42H93.8338V40.26C93.8338 39.968 93.7598 39.756 93.6118 39.624C93.4678 39.492 93.2718 39.426 93.0238 39.426C92.7398 39.426 92.5078 39.518 92.3278 39.702C92.1518 39.886 92.0638 40.16 92.0638 40.524V42H91.5898ZM42.878 66.084C42.574 66.084 42.302 66.03 42.062 65.922C41.822 65.814 41.632 65.652 41.492 65.436C41.356 65.216 41.288 64.942 41.288 64.614V64.488H41.786V64.614C41.786 64.962 41.888 65.222 42.092 65.394C42.296 65.562 42.558 65.646 42.878 65.646C43.206 65.646 43.456 65.572 43.628 65.424C43.8 65.276 43.886 65.09 43.886 64.866C43.886 64.71 43.846 64.586 43.766 64.494C43.69 64.402 43.582 64.328 43.442 64.272C43.302 64.212 43.138 64.16 42.95 64.116L42.638 64.038C42.394 63.974 42.178 63.896 41.99 63.804C41.802 63.712 41.654 63.592 41.546 63.444C41.442 63.292 41.39 63.098 41.39 62.862C41.39 62.626 41.448 62.422 41.564 62.25C41.684 62.078 41.85 61.946 42.062 61.854C42.278 61.762 42.526 61.716 42.806 61.716C43.09 61.716 43.344 61.766 43.568 61.866C43.796 61.962 43.974 62.106 44.102 62.298C44.234 62.486 44.3 62.724 44.3 63.012V63.264H43.802V63.012C43.802 62.808 43.758 62.644 43.67 62.52C43.586 62.396 43.468 62.304 43.316 62.244C43.168 62.184 42.998 62.154 42.806 62.154C42.53 62.154 42.308 62.216 42.14 62.34C41.972 62.46 41.888 62.632 41.888 62.856C41.888 63.004 41.924 63.124 41.996 63.216C42.068 63.308 42.17 63.384 42.302 63.444C42.434 63.5 42.592 63.55 42.776 63.594L43.088 63.672C43.332 63.724 43.55 63.796 43.742 63.888C43.938 63.976 44.094 64.098 44.21 64.254C44.326 64.406 44.384 64.606 44.384 64.854C44.384 65.102 44.322 65.318 44.198 65.502C44.074 65.686 43.898 65.83 43.67 65.934C43.446 66.034 43.182 66.084 42.878 66.084ZM46.2577 66C46.0897 66 45.9597 65.954 45.8677 65.862C45.7797 65.77 45.7357 65.644 45.7357 65.484V63.48H44.8537V63.066H45.7357V62.022H46.2097V63.066H47.1697V63.48H46.2097V65.412C46.2097 65.532 46.2677 65.592 46.3837 65.592H47.0377V66H46.2577ZM47.9375 66V63.066H48.3995V63.426H48.4835C48.5355 63.298 48.6155 63.204 48.7235 63.144C48.8315 63.084 48.9735 63.054 49.1495 63.054H49.4975V63.486H49.1195C48.9075 63.486 48.7355 63.546 48.6035 63.666C48.4755 63.782 48.4115 63.964 48.4115 64.212V66H47.9375ZM50.1992 66V63.066H50.6732V66H50.1992ZM50.4392 62.61C50.3352 62.61 50.2472 62.576 50.1752 62.508C50.1072 62.44 50.0732 62.354 50.0732 62.25C50.0732 62.142 50.1072 62.054 50.1752 61.986C50.2472 61.918 50.3352 61.884 50.4392 61.884C50.5432 61.884 50.6292 61.918 50.6972 61.986C50.7652 62.054 50.7992 62.142 50.7992 62.25C50.7992 62.354 50.7652 62.44 50.6972 62.508C50.6292 62.576 50.5432 62.61 50.4392 62.61ZM51.6699 66V63.066H52.1319V63.564H52.2159C52.2799 63.424 52.3879 63.298 52.5399 63.186C52.6959 63.07 52.9239 63.012 53.2239 63.012C53.4439 63.012 53.6399 63.058 53.8119 63.15C53.9879 63.242 54.1279 63.378 54.2319 63.558C54.3359 63.738 54.3879 63.96 54.3879 64.224V66H53.9139V64.26C53.9139 63.968 53.8399 63.756 53.6919 63.624C53.5479 63.492 53.3519 63.426 53.1039 63.426C52.8199 63.426 52.5879 63.518 52.4079 63.702C52.2319 63.886 52.1439 64.16 52.1439 64.524V66H51.6699ZM55.2056 64.548V64.464C55.2056 64.156 55.2676 63.892 55.3916 63.672C55.5156 63.452 55.6836 63.282 55.8956 63.162C56.1076 63.042 56.3396 62.982 56.5916 62.982C56.8996 62.982 57.1356 63.042 57.2996 63.162C57.4676 63.278 57.5916 63.408 57.6716 63.552H57.7556V63.066H58.2056V66.684C58.2056 66.844 58.1616 66.97 58.0736 67.062C57.9856 67.154 57.8576 67.2 57.6896 67.2H55.6976V66.78H57.5636C57.6836 66.78 57.7436 66.72 57.7436 66.6V65.484H57.6596C57.6116 65.572 57.5436 65.658 57.4556 65.742C57.3676 65.826 57.2536 65.896 57.1136 65.952C56.9736 66.004 56.7996 66.03 56.5916 66.03C56.3396 66.03 56.1076 65.97 55.8956 65.85C55.6836 65.73 55.5156 65.56 55.3916 65.34C55.2676 65.116 55.2056 64.852 55.2056 64.548ZM56.7176 65.61C57.0216 65.61 57.2676 65.514 57.4556 65.322C57.6476 65.13 57.7436 64.866 57.7436 64.53V64.482C57.7436 64.142 57.6476 63.878 57.4556 63.69C57.2676 63.498 57.0216 63.402 56.7176 63.402C56.4176 63.402 56.1696 63.498 55.9736 63.69C55.7816 63.878 55.6856 64.142 55.6856 64.482V64.53C55.6856 64.866 55.7816 65.13 55.9736 65.322C56.1696 65.514 56.4176 65.61 56.7176 65.61ZM72.3741 66.084C72.0701 66.084 71.7981 66.03 71.5581 65.922C71.3181 65.814 71.1281 65.652 70.9881 65.436C70.8521 65.216 70.7841 64.942 70.7841 64.614V64.488H71.2821V64.614C71.2821 64.962 71.3841 65.222 71.5881 65.394C71.7921 65.562 72.0541 65.646 72.3741 65.646C72.7021 65.646 72.9521 65.572 73.1241 65.424C73.2961 65.276 73.3821 65.09 73.3821 64.866C73.3821 64.71 73.3421 64.586 73.2621 64.494C73.1861 64.402 73.0781 64.328 72.9381 64.272C72.7981 64.212 72.6341 64.16 72.4461 64.116L72.1341 64.038C71.8901 63.974 71.6741 63.896 71.4861 63.804C71.2981 63.712 71.1501 63.592 71.0421 63.444C70.9381 63.292 70.8861 63.098 70.8861 62.862C70.8861 62.626 70.9441 62.422 71.0601 62.25C71.1801 62.078 71.3461 61.946 71.5581 61.854C71.7741 61.762 72.0221 61.716 72.3021 61.716C72.5861 61.716 72.8401 61.766 73.0641 61.866C73.2921 61.962 73.4701 62.106 73.5981 62.298C73.7301 62.486 73.7961 62.724 73.7961 63.012V63.264H73.2981V63.012C73.2981 62.808 73.2541 62.644 73.1661 62.52C73.0821 62.396 72.9641 62.304 72.8121 62.244C72.6641 62.184 72.4941 62.154 72.3021 62.154C72.0261 62.154 71.8041 62.216 71.6361 62.34C71.4681 62.46 71.3841 62.632 71.3841 62.856C71.3841 63.004 71.4201 63.124 71.4921 63.216C71.5641 63.308 71.6661 63.384 71.7981 63.444C71.9301 63.5 72.0881 63.55 72.2721 63.594L72.5841 63.672C72.8281 63.724 73.0461 63.796 73.2381 63.888C73.4341 63.976 73.5901 64.098 73.7061 64.254C73.8221 64.406 73.8801 64.606 73.8801 64.854C73.8801 65.102 73.8181 65.318 73.6941 65.502C73.5701 65.686 73.3941 65.83 73.1661 65.934C72.9421 66.034 72.6781 66.084 72.3741 66.084ZM75.7538 66C75.5858 66 75.4558 65.954 75.3638 65.862C75.2758 65.77 75.2318 65.644 75.2318 65.484V63.48H74.3498V63.066H75.2318V62.022H75.7058V63.066H76.6658V63.48H75.7058V65.412C75.7058 65.532 75.7638 65.592 75.8798 65.592H76.5338V66H75.7538ZM77.4335 66V63.066H77.8955V63.426H77.9795C78.0315 63.298 78.1115 63.204 78.2195 63.144C78.3275 63.084 78.4695 63.054 78.6455 63.054H78.9935V63.486H78.6155C78.4035 63.486 78.2315 63.546 78.0995 63.666C77.9715 63.782 77.9075 63.964 77.9075 64.212V66H77.4335ZM79.6953 66V63.066H80.1693V66H79.6953ZM79.9353 62.61C79.8313 62.61 79.7433 62.576 79.6713 62.508C79.6033 62.44 79.5693 62.354 79.5693 62.25C79.5693 62.142 79.6033 62.054 79.6713 61.986C79.7433 61.918 79.8313 61.884 79.9353 61.884C80.0393 61.884 80.1253 61.918 80.1933 61.986C80.2613 62.054 80.2953 62.142 80.2953 62.25C80.2953 62.354 80.2613 62.44 80.1933 62.508C80.1253 62.576 80.0393 62.61 79.9353 62.61ZM81.166 66V63.066H81.628V63.564H81.712C81.776 63.424 81.884 63.298 82.036 63.186C82.192 63.07 82.42 63.012 82.72 63.012C82.94 63.012 83.136 63.058 83.308 63.15C83.484 63.242 83.624 63.378 83.728 63.558C83.832 63.738 83.884 63.96 83.884 64.224V66H83.41V64.26C83.41 63.968 83.336 63.756 83.188 63.624C83.044 63.492 82.848 63.426 82.6 63.426C82.316 63.426 82.084 63.518 81.904 63.702C81.728 63.886 81.64 64.16 81.64 64.524V66H81.166ZM84.7017 64.548V64.464C84.7017 64.156 84.7637 63.892 84.8877 63.672C85.0117 63.452 85.1797 63.282 85.3917 63.162C85.6037 63.042 85.8357 62.982 86.0877 62.982C86.3957 62.982 86.6317 63.042 86.7957 63.162C86.9637 63.278 87.0877 63.408 87.1677 63.552H87.2517V63.066H87.7017V66.684C87.7017 66.844 87.6577 66.97 87.5697 67.062C87.4817 67.154 87.3537 67.2 87.1857 67.2H85.1937V66.78H87.0597C87.1797 66.78 87.2397 66.72 87.2397 66.6V65.484H87.1557C87.1077 65.572 87.0397 65.658 86.9517 65.742C86.8637 65.826 86.7497 65.896 86.6097 65.952C86.4697 66.004 86.2957 66.03 86.0877 66.03C85.8357 66.03 85.6037 65.97 85.3917 65.85C85.1797 65.73 85.0117 65.56 84.8877 65.34C84.7637 65.116 84.7017 64.852 84.7017 64.548ZM86.2137 65.61C86.5177 65.61 86.7637 65.514 86.9517 65.322C87.1437 65.13 87.2397 64.866 87.2397 64.53V64.482C87.2397 64.142 87.1437 63.878 86.9517 63.69C86.7637 63.498 86.5177 63.402 86.2137 63.402C85.9137 63.402 85.6657 63.498 85.4697 63.69C85.2777 63.878 85.1817 64.142 85.1817 64.482V64.53C85.1817 64.866 85.2777 65.13 85.4697 65.322C85.6657 65.514 85.9137 65.61 86.2137 65.61Z" fill="#00A1FF"/>
<path d="M41.498 51.2V47.066H41.96V47.552H42.044C42.12 47.404 42.242 47.272 42.41 47.156C42.582 47.04 42.82 46.982 43.124 46.982C43.376 46.982 43.606 47.044 43.814 47.168C44.026 47.288 44.194 47.46 44.318 47.684C44.446 47.908 44.51 48.178 44.51 48.494V48.572C44.51 48.884 44.448 49.154 44.324 49.382C44.2 49.61 44.032 49.784 43.82 49.904C43.612 50.024 43.38 50.084 43.124 50.084C42.92 50.084 42.746 50.056 42.602 50C42.462 49.948 42.348 49.88 42.26 49.796C42.172 49.712 42.104 49.626 42.056 49.538H41.972V51.2H41.498ZM42.998 49.664C43.302 49.664 43.548 49.568 43.736 49.376C43.928 49.18 44.024 48.908 44.024 48.56V48.506C44.024 48.158 43.928 47.888 43.736 47.696C43.548 47.5 43.302 47.402 42.998 47.402C42.698 47.402 42.45 47.5 42.254 47.696C42.062 47.888 41.966 48.158 41.966 48.506V48.56C41.966 48.908 42.062 49.18 42.254 49.376C42.45 49.568 42.698 49.664 42.998 49.664ZM45.3593 50V47.066H45.8213V47.426H45.9053C45.9573 47.298 46.0373 47.204 46.1453 47.144C46.2533 47.084 46.3953 47.054 46.5713 47.054H46.9193V47.486H46.5413C46.3293 47.486 46.1573 47.546 46.0253 47.666C45.8973 47.782 45.8333 47.964 45.8333 48.212V50H45.3593ZM47.621 50V47.066H48.095V50H47.621ZM47.861 46.61C47.757 46.61 47.669 46.576 47.597 46.508C47.529 46.44 47.495 46.354 47.495 46.25C47.495 46.142 47.529 46.054 47.597 45.986C47.669 45.918 47.757 45.884 47.861 45.884C47.965 45.884 48.051 45.918 48.119 45.986C48.187 46.054 48.221 46.142 48.221 46.25C48.221 46.354 48.187 46.44 48.119 46.508C48.051 46.576 47.965 46.61 47.861 46.61ZM49.0918 50V47.066H49.5538V47.564H49.6378C49.7018 47.424 49.8098 47.298 49.9618 47.186C50.1178 47.07 50.3458 47.012 50.6458 47.012C50.8658 47.012 51.0618 47.058 51.2338 47.15C51.4098 47.242 51.5498 47.378 51.6538 47.558C51.7578 47.738 51.8098 47.96 51.8098 48.224V50H51.3358V48.26C51.3358 47.968 51.2618 47.756 51.1138 47.624C50.9698 47.492 50.7738 47.426 50.5258 47.426C50.2418 47.426 50.0098 47.518 49.8298 47.702C49.6538 47.886 49.5658 48.16 49.5658 48.524V50H49.0918ZM53.7694 50C53.6014 50 53.4714 49.954 53.3794 49.862C53.2914 49.77 53.2474 49.644 53.2474 49.484V47.48H52.3654V47.066H53.2474V46.022H53.7214V47.066H54.6814V47.48H53.7214V49.412C53.7214 49.532 53.7794 49.592 53.8954 49.592H54.5494V50H53.7694ZM62.9779 64.674V64.236H64.7539V64.674H62.9779ZM65.8344 65.22V64.716L67.8744 63.936V63.864L65.8344 63.084V62.58L68.3544 63.594V64.206L65.8344 65.22Z" fill="#FF0532"/>
<path d="M57.1652 51.41C56.7812 51.41 56.4492 51.342 56.1692 51.206C55.8932 51.07 55.6812 50.856 55.5332 50.564C55.3852 50.276 55.3112 49.902 55.3112 49.442V47.498C55.3112 47.034 55.3852 46.658 55.5332 46.37C55.6812 46.082 55.8932 45.87 56.1692 45.734C56.4492 45.598 56.7812 45.53 57.1652 45.53V45.944C56.6892 45.948 56.3372 46.08 56.1092 46.34C55.8812 46.596 55.7672 46.992 55.7672 47.528V49.412C55.7672 49.944 55.8812 50.34 56.1092 50.6C56.3372 50.86 56.6892 50.992 57.1652 50.996V51.41ZM94.4736 51.41V50.996C94.9576 50.992 95.3116 50.86 95.5356 50.6C95.7596 50.34 95.8716 49.944 95.8716 49.412V47.528C95.8716 46.992 95.7596 46.596 95.5356 46.34C95.3116 46.08 94.9576 45.948 94.4736 45.944V45.53C94.8616 45.53 95.1936 45.598 95.4696 45.734C95.7456 45.87 95.9576 46.082 96.1056 46.37C96.2576 46.658 96.3336 47.034 96.3336 47.498V49.442C96.3336 49.902 96.2576 50.276 96.1056 50.564C95.9576 50.856 95.7456 51.07 95.4696 51.206C95.1936 51.342 94.8616 51.41 94.4736 51.41ZM91.2803 67.41C91.1483 67.41 91.0363 67.364 90.9443 67.272C90.8563 67.184 90.8123 67.072 90.8123 66.936V64.998C90.8123 64.798 90.7043 64.698 90.4883 64.698H89.9723V64.242H90.4883C90.7043 64.242 90.8123 64.142 90.8123 63.942V62.004C90.8123 61.868 90.8563 61.756 90.9443 61.668C91.0363 61.576 91.1483 61.53 91.2803 61.53H92.2163V61.944H91.4363C91.3283 61.944 91.2743 62.004 91.2743 62.124V63.948C91.2743 64.092 91.2343 64.208 91.1543 64.296C91.0783 64.384 90.9703 64.428 90.8303 64.428H90.7883V64.512H90.8303C90.9703 64.512 91.0783 64.556 91.1543 64.644C91.2343 64.732 91.2743 64.848 91.2743 64.992V66.816C91.2743 66.936 91.3283 66.996 91.4363 66.996H92.2163V67.41H91.2803ZM51.4412 74L50.3912 71.066H50.8952L51.7772 73.646H51.8612L52.7432 71.066H53.2472L52.1972 74H51.4412ZM54.7378 74.084C54.5338 74.084 54.3478 74.048 54.1798 73.976C54.0118 73.904 53.8798 73.8 53.7838 73.664C53.6878 73.528 53.6398 73.362 53.6398 73.166C53.6398 72.966 53.6878 72.802 53.7838 72.674C53.8798 72.542 54.0118 72.444 54.1798 72.38C54.3478 72.312 54.5358 72.278 54.7438 72.278H55.7338V72.062C55.7338 71.854 55.6718 71.69 55.5478 71.57C55.4278 71.45 55.2478 71.39 55.0078 71.39C54.7718 71.39 54.5878 71.448 54.4558 71.564C54.3238 71.676 54.2338 71.828 54.1858 72.02L53.7418 71.876C53.7898 71.712 53.8658 71.564 53.9698 71.432C54.0738 71.296 54.2118 71.188 54.3838 71.108C54.5598 71.024 54.7698 70.982 55.0138 70.982C55.3898 70.982 55.6818 71.08 55.8898 71.276C56.0978 71.468 56.2018 71.74 56.2018 72.092V73.418C56.2018 73.538 56.2578 73.598 56.3698 73.598H56.6398V74H56.2258C56.0938 74 55.9878 73.964 55.9078 73.892C55.8278 73.816 55.7878 73.716 55.7878 73.592V73.562H55.7158C55.6718 73.638 55.6118 73.718 55.5358 73.802C55.4638 73.882 55.3638 73.948 55.2358 74C55.1078 74.056 54.9418 74.084 54.7378 74.084ZM54.7918 73.676C55.0718 73.676 55.2978 73.594 55.4698 73.43C55.6458 73.262 55.7338 73.028 55.7338 72.728V72.662H54.7618C54.5738 72.662 54.4178 72.704 54.2938 72.788C54.1738 72.868 54.1138 72.99 54.1138 73.154C54.1138 73.318 54.1758 73.446 54.2998 73.538C54.4278 73.63 54.5918 73.676 54.7918 73.676ZM57.289 74V71.066H57.751V71.426H57.835C57.887 71.298 57.967 71.204 58.075 71.144C58.183 71.084 58.325 71.054 58.501 71.054H58.849V71.486H58.471C58.259 71.486 58.087 71.546 57.955 71.666C57.827 71.782 57.763 71.964 57.763 72.212V74H57.289ZM59.5507 74V71.066H60.0247V74H59.5507ZM59.7907 70.61C59.6867 70.61 59.5987 70.576 59.5267 70.508C59.4587 70.44 59.4247 70.354 59.4247 70.25C59.4247 70.142 59.4587 70.054 59.5267 69.986C59.5987 69.918 59.6867 69.884 59.7907 69.884C59.8947 69.884 59.9807 69.918 60.0487 69.986C60.1167 70.054 60.1507 70.142 60.1507 70.25C60.1507 70.354 60.1167 70.44 60.0487 70.508C59.9807 70.576 59.8947 70.61 59.7907 70.61ZM61.9214 74.084C61.7174 74.084 61.5314 74.048 61.3634 73.976C61.1954 73.904 61.0634 73.8 60.9674 73.664C60.8714 73.528 60.8234 73.362 60.8234 73.166C60.8234 72.966 60.8714 72.802 60.9674 72.674C61.0634 72.542 61.1954 72.444 61.3634 72.38C61.5314 72.312 61.7194 72.278 61.9274 72.278H62.9174V72.062C62.9174 71.854 62.8554 71.69 62.7314 71.57C62.6114 71.45 62.4314 71.39 62.1914 71.39C61.9554 71.39 61.7714 71.448 61.6394 71.564C61.5074 71.676 61.4174 71.828 61.3694 72.02L60.9254 71.876C60.9734 71.712 61.0494 71.564 61.1534 71.432C61.2574 71.296 61.3954 71.188 61.5674 71.108C61.7434 71.024 61.9534 70.982 62.1974 70.982C62.5734 70.982 62.8654 71.08 63.0734 71.276C63.2814 71.468 63.3854 71.74 63.3854 72.092V73.418C63.3854 73.538 63.4414 73.598 63.5534 73.598H63.8234V74H63.4094C63.2774 74 63.1714 73.964 63.0914 73.892C63.0114 73.816 62.9714 73.716 62.9714 73.592V73.562H62.8994C62.8554 73.638 62.7954 73.718 62.7194 73.802C62.6474 73.882 62.5474 73.948 62.4194 74C62.2914 74.056 62.1254 74.084 61.9214 74.084ZM61.9754 73.676C62.2554 73.676 62.4814 73.594 62.6534 73.43C62.8294 73.262 62.9174 73.028 62.9174 72.728V72.662H61.9454C61.7574 72.662 61.6014 72.704 61.4774 72.788C61.3574 72.868 61.2974 72.99 61.2974 73.154C61.2974 73.318 61.3594 73.446 61.4834 73.538C61.6114 73.63 61.7754 73.676 61.9754 73.676ZM66.0986 74.084C65.7946 74.084 65.5566 74.026 65.3846 73.91C65.2166 73.794 65.0946 73.662 65.0186 73.514H64.9346V74H64.4726V69.8H64.9466V71.528H65.0306C65.0786 71.436 65.1466 71.35 65.2346 71.27C65.3226 71.186 65.4366 71.118 65.5766 71.066C65.7206 71.01 65.8946 70.982 66.0986 70.982C66.3546 70.982 66.5866 71.044 66.7946 71.168C67.0066 71.288 67.1746 71.462 67.2986 71.69C67.4226 71.914 67.4846 72.182 67.4846 72.494V72.572C67.4846 72.884 67.4206 73.154 67.2926 73.382C67.1686 73.61 67.0006 73.784 66.7886 73.904C66.5806 74.024 66.3506 74.084 66.0986 74.084ZM65.9726 73.664C66.2766 73.664 66.5226 73.568 66.7106 73.376C66.9026 73.18 66.9986 72.908 66.9986 72.56V72.506C66.9986 72.158 66.9026 71.888 66.7106 71.696C66.5226 71.5 66.2766 71.402 65.9726 71.402C65.6726 71.402 65.4246 71.5 65.2286 71.696C65.0366 71.888 64.9406 72.158 64.9406 72.506V72.56C64.9406 72.908 65.0366 73.18 65.2286 73.376C65.4246 73.568 65.6726 73.664 65.9726 73.664ZM68.3339 74V69.8H68.8079V74H68.3339ZM71.1486 74.084C70.8526 74.084 70.5926 74.022 70.3686 73.898C70.1446 73.77 69.9706 73.592 69.8466 73.364C69.7226 73.136 69.6606 72.872 69.6606 72.572V72.5C69.6606 72.196 69.7226 71.93 69.8466 71.702C69.9706 71.474 70.1426 71.298 70.3626 71.174C70.5826 71.046 70.8346 70.982 71.1186 70.982C71.3946 70.982 71.6386 71.042 71.8506 71.162C72.0626 71.278 72.2286 71.446 72.3486 71.666C72.4686 71.886 72.5286 72.144 72.5286 72.44V72.656H70.1346C70.1466 72.972 70.2486 73.22 70.4406 73.4C70.6326 73.576 70.8726 73.664 71.1606 73.664C71.4126 73.664 71.6066 73.606 71.7426 73.49C71.8786 73.374 71.9826 73.236 72.0546 73.076L72.4626 73.274C72.4026 73.398 72.3186 73.522 72.2106 73.646C72.1066 73.77 71.9686 73.874 71.7966 73.958C71.6286 74.042 71.4126 74.084 71.1486 74.084ZM70.1406 72.266H72.0486C72.0326 71.994 71.9386 71.782 71.7666 71.63C71.5986 71.478 71.3826 71.402 71.1186 71.402C70.8506 71.402 70.6306 71.478 70.4586 71.63C70.2866 71.782 70.1806 71.994 70.1406 72.266ZM74.9984 71.666V71.234H77.5184V71.666H74.9984ZM74.9984 72.566V72.134H77.5184V72.566H74.9984ZM81.7602 69.716V70.016H81.5862C81.4422 70.016 81.3702 70.088 81.3702 70.232V70.424H81.4542C81.5702 70.424 81.6662 70.46 81.7422 70.532C81.8222 70.604 81.8622 70.694 81.8622 70.802C81.8622 70.918 81.8222 71.012 81.7422 71.084C81.6662 71.156 81.5702 71.192 81.4542 71.192C81.3382 71.192 81.2422 71.154 81.1662 71.078C81.0902 71.002 81.0522 70.906 81.0522 70.79V70.232C81.0522 69.888 81.2242 69.716 81.5682 69.716H81.7602ZM80.7162 69.716V70.016H80.5422C80.3982 70.016 80.3262 70.088 80.3262 70.232V70.424H80.4102C80.5262 70.424 80.6222 70.46 80.6982 70.532C80.7782 70.604 80.8182 70.694 80.8182 70.802C80.8182 70.918 80.7782 71.012 80.6982 71.084C80.6222 71.156 80.5262 71.192 80.4102 71.192C80.2942 71.192 80.1982 71.154 80.1222 71.078C80.0462 71.002 80.0082 70.906 80.0082 70.79V70.232C80.0082 69.888 80.1802 69.716 80.5242 69.716H80.7162ZM82.707 74V69.8H83.181V71.534H83.265C83.305 71.446 83.365 71.364 83.445 71.288C83.529 71.208 83.635 71.142 83.763 71.09C83.895 71.038 84.061 71.012 84.261 71.012C84.481 71.012 84.677 71.06 84.849 71.156C85.025 71.248 85.165 71.384 85.269 71.564C85.373 71.74 85.425 71.96 85.425 72.224V74H84.951V72.26C84.951 71.968 84.877 71.756 84.729 71.624C84.585 71.492 84.389 71.426 84.141 71.426C83.857 71.426 83.625 71.518 83.445 71.702C83.269 71.886 83.181 72.16 83.181 72.524V74H82.707ZM87.7307 74.084C87.4347 74.084 87.1747 74.022 86.9507 73.898C86.7267 73.77 86.5527 73.592 86.4287 73.364C86.3047 73.136 86.2427 72.872 86.2427 72.572V72.5C86.2427 72.196 86.3047 71.93 86.4287 71.702C86.5527 71.474 86.7247 71.298 86.9447 71.174C87.1647 71.046 87.4167 70.982 87.7007 70.982C87.9767 70.982 88.2207 71.042 88.4327 71.162C88.6447 71.278 88.8107 71.446 88.9307 71.666C89.0507 71.886 89.1107 72.144 89.1107 72.44V72.656H86.7167C86.7287 72.972 86.8307 73.22 87.0227 73.4C87.2147 73.576 87.4547 73.664 87.7427 73.664C87.9947 73.664 88.1887 73.606 88.3247 73.49C88.4607 73.374 88.5647 73.236 88.6367 73.076L89.0447 73.274C88.9847 73.398 88.9007 73.522 88.7927 73.646C88.6887 73.77 88.5507 73.874 88.3787 73.958C88.2107 74.042 87.9947 74.084 87.7307 74.084ZM86.7227 72.266H88.6307C88.6147 71.994 88.5207 71.782 88.3487 71.63C88.1807 71.478 87.9647 71.402 87.7007 71.402C87.4327 71.402 87.2127 71.478 87.0407 71.63C86.8687 71.782 86.7627 71.994 86.7227 72.266ZM89.9375 74V69.8H90.4115V74H89.9375ZM91.4082 74V69.8H91.8822V74H91.4082ZM94.2349 74.084C93.9389 74.084 93.6769 74.022 93.4489 73.898C93.2249 73.774 93.0489 73.6 92.9209 73.376C92.7969 73.148 92.7349 72.88 92.7349 72.572V72.494C92.7349 72.19 92.7969 71.924 92.9209 71.696C93.0489 71.468 93.2249 71.292 93.4489 71.168C93.6769 71.044 93.9389 70.982 94.2349 70.982C94.5309 70.982 94.7909 71.044 95.0149 71.168C95.2429 71.292 95.4189 71.468 95.5429 71.696C95.6709 71.924 95.7349 72.19 95.7349 72.494V72.572C95.7349 72.88 95.6709 73.148 95.5429 73.376C95.4189 73.6 95.2429 73.774 95.0149 73.898C94.7909 74.022 94.5309 74.084 94.2349 74.084ZM94.2349 73.658C94.5469 73.658 94.7949 73.56 94.9789 73.364C95.1669 73.164 95.2609 72.896 95.2609 72.56V72.506C95.2609 72.17 95.1669 71.904 94.9789 71.708C94.7949 71.508 94.5469 71.408 94.2349 71.408C93.9269 71.408 93.6789 71.508 93.4909 71.708C93.3029 71.904 93.2089 72.17 93.2089 72.506V72.56C93.2089 72.896 93.3029 73.164 93.4909 73.364C93.6789 73.56 93.9269 73.658 94.2349 73.658Z" fill="white"/>
<path d="M59.3246 45.716V46.016H59.1506C59.0066 46.016 58.9346 46.088 58.9346 46.232V46.424H59.0186C59.1346 46.424 59.2306 46.46 59.3066 46.532C59.3866 46.604 59.4266 46.694 59.4266 46.802C59.4266 46.918 59.3866 47.012 59.3066 47.084C59.2306 47.156 59.1346 47.192 59.0186 47.192C58.9026 47.192 58.8066 47.154 58.7306 47.078C58.6546 47.002 58.6166 46.906 58.6166 46.79V46.232C58.6166 45.888 58.7886 45.716 59.1326 45.716H59.3246ZM58.2806 45.716V46.016H58.1066C57.9626 46.016 57.8906 46.088 57.8906 46.232V46.424H57.9746C58.0906 46.424 58.1866 46.46 58.2626 46.532C58.3426 46.604 58.3826 46.694 58.3826 46.802C58.3826 46.918 58.3426 47.012 58.2626 47.084C58.1866 47.156 58.0906 47.192 57.9746 47.192C57.8586 47.192 57.7626 47.154 57.6866 47.078C57.6106 47.002 57.5726 46.906 57.5726 46.79V46.232C57.5726 45.888 57.7446 45.716 58.0886 45.716H58.2806ZM60.2534 50V45.8H60.7574V47.666H62.7254V45.8H63.2294V50H62.7254V48.122H60.7574V50H60.2534ZM65.5529 50.084C65.2569 50.084 64.9969 50.022 64.7729 49.898C64.5489 49.77 64.3749 49.592 64.2509 49.364C64.1269 49.136 64.0649 48.872 64.0649 48.572V48.5C64.0649 48.196 64.1269 47.93 64.2509 47.702C64.3749 47.474 64.5469 47.298 64.7669 47.174C64.9869 47.046 65.2389 46.982 65.5229 46.982C65.7989 46.982 66.0429 47.042 66.2549 47.162C66.4669 47.278 66.6329 47.446 66.7529 47.666C66.8729 47.886 66.9329 48.144 66.9329 48.44V48.656H64.5389C64.5509 48.972 64.6529 49.22 64.8449 49.4C65.0369 49.576 65.2769 49.664 65.5649 49.664C65.8169 49.664 66.0109 49.606 66.1469 49.49C66.2829 49.374 66.3869 49.236 66.4589 49.076L66.8669 49.274C66.8069 49.398 66.7229 49.522 66.6149 49.646C66.5109 49.77 66.3729 49.874 66.2009 49.958C66.0329 50.042 65.8169 50.084 65.5529 50.084ZM64.5449 48.266H66.4529C66.4369 47.994 66.3429 47.782 66.1709 47.63C66.0029 47.478 65.7869 47.402 65.5229 47.402C65.2549 47.402 65.0349 47.478 64.8629 47.63C64.6909 47.782 64.5849 47.994 64.5449 48.266ZM67.7597 50V45.8H68.2337V50H67.7597ZM69.2304 50V45.8H69.7044V50H69.2304ZM72.0571 50.084C71.7611 50.084 71.4991 50.022 71.2711 49.898C71.0471 49.774 70.8711 49.6 70.7431 49.376C70.6191 49.148 70.5571 48.88 70.5571 48.572V48.494C70.5571 48.19 70.6191 47.924 70.7431 47.696C70.8711 47.468 71.0471 47.292 71.2711 47.168C71.4991 47.044 71.7611 46.982 72.0571 46.982C72.3531 46.982 72.6131 47.044 72.8371 47.168C73.0651 47.292 73.2411 47.468 73.3651 47.696C73.4931 47.924 73.5571 48.19 73.5571 48.494V48.572C73.5571 48.88 73.4931 49.148 73.3651 49.376C73.2411 49.6 73.0651 49.774 72.8371 49.898C72.6131 50.022 72.3531 50.084 72.0571 50.084ZM72.0571 49.658C72.3691 49.658 72.6171 49.56 72.8011 49.364C72.9891 49.164 73.0831 48.896 73.0831 48.56V48.506C73.0831 48.17 72.9891 47.904 72.8011 47.708C72.6171 47.508 72.3691 47.408 72.0571 47.408C71.7491 47.408 71.5011 47.508 71.3131 47.708C71.1251 47.904 71.0311 48.17 71.0311 48.506V48.56C71.0311 48.896 71.1251 49.164 71.3131 49.364C71.5011 49.56 71.7491 49.658 72.0571 49.658ZM76.3181 50L75.6341 45.8H76.1381L76.7321 49.676H76.8161L77.5901 45.8H78.4901L79.2581 49.676H79.3421L79.9361 45.8H80.4401L79.7561 50H78.8561L78.0821 46.1H77.9981L77.2241 50H76.3181ZM82.4341 50.084C82.1381 50.084 81.8761 50.022 81.6481 49.898C81.4241 49.774 81.2481 49.6 81.1201 49.376C80.9961 49.148 80.9341 48.88 80.9341 48.572V48.494C80.9341 48.19 80.9961 47.924 81.1201 47.696C81.2481 47.468 81.4241 47.292 81.6481 47.168C81.8761 47.044 82.1381 46.982 82.4341 46.982C82.7301 46.982 82.9901 47.044 83.2141 47.168C83.4421 47.292 83.6181 47.468 83.7421 47.696C83.8701 47.924 83.9341 48.19 83.9341 48.494V48.572C83.9341 48.88 83.8701 49.148 83.7421 49.376C83.6181 49.6 83.4421 49.774 83.2141 49.898C82.9901 50.022 82.7301 50.084 82.4341 50.084ZM82.4341 49.658C82.7461 49.658 82.9941 49.56 83.1781 49.364C83.3661 49.164 83.4601 48.896 83.4601 48.56V48.506C83.4601 48.17 83.3661 47.904 83.1781 47.708C82.9941 47.508 82.7461 47.408 82.4341 47.408C82.1261 47.408 81.8781 47.508 81.6901 47.708C81.5021 47.904 81.4081 48.17 81.4081 48.506V48.56C81.4081 48.896 81.5021 49.164 81.6901 49.364C81.8781 49.56 82.1261 49.658 82.4341 49.658ZM84.7871 50V47.066H85.2491V47.426H85.3331C85.3851 47.298 85.4651 47.204 85.5731 47.144C85.6811 47.084 85.8231 47.054 85.9991 47.054H86.3471V47.486H85.9691C85.7571 47.486 85.5851 47.546 85.4531 47.666C85.3251 47.782 85.2611 47.964 85.2611 48.212V50H84.7871ZM87.0488 50V45.8H87.5228V50H87.0488ZM89.7615 50.084C89.5095 50.084 89.2775 50.024 89.0655 49.904C88.8535 49.784 88.6855 49.61 88.5615 49.382C88.4375 49.154 88.3755 48.884 88.3755 48.572V48.494C88.3755 48.182 88.4375 47.914 88.5615 47.69C88.6855 47.462 88.8515 47.288 89.0595 47.168C89.2715 47.044 89.5055 46.982 89.7615 46.982C89.9655 46.982 90.1375 47.01 90.2775 47.066C90.4215 47.118 90.5375 47.186 90.6255 47.27C90.7135 47.35 90.7815 47.436 90.8295 47.528H90.9135V45.8H91.3875V50H90.9255V49.514H90.8415C90.7615 49.662 90.6375 49.794 90.4695 49.91C90.3015 50.026 90.0655 50.084 89.7615 50.084ZM89.8875 49.664C90.1915 49.664 90.4375 49.568 90.6255 49.376C90.8175 49.18 90.9135 48.908 90.9135 48.56V48.506C90.9135 48.158 90.8175 47.888 90.6255 47.696C90.4375 47.5 90.1915 47.402 89.8875 47.402C89.5875 47.402 89.3395 47.5 89.1435 47.696C88.9515 47.888 88.8555 48.158 88.8555 48.506V48.56C88.8555 48.908 88.9515 49.18 89.1435 49.376C89.3395 49.568 89.5875 49.664 89.8875 49.664ZM92.3328 47.192V46.892H92.5068C92.6508 46.892 92.7228 46.82 92.7228 46.676V46.484H92.6388C92.5228 46.484 92.4248 46.448 92.3448 46.376C92.2688 46.304 92.2308 46.214 92.2308 46.106C92.2308 45.99 92.2688 45.896 92.3448 45.824C92.4248 45.752 92.5228 45.716 92.6388 45.716C92.7548 45.716 92.8508 45.754 92.9268 45.83C93.0028 45.906 93.0408 46.002 93.0408 46.118V46.676C93.0408 47.02 92.8688 47.192 92.5248 47.192H92.3328ZM93.3708 47.192V46.892H93.5448C93.6888 46.892 93.7608 46.82 93.7608 46.676V46.484H93.6768C93.5608 46.484 93.4628 46.448 93.3828 46.376C93.3068 46.304 93.2688 46.214 93.2688 46.106C93.2688 45.99 93.3068 45.896 93.3828 45.824C93.4628 45.752 93.5608 45.716 93.6768 45.716C93.7928 45.716 93.8888 45.754 93.9648 45.83C94.0408 45.906 94.0788 46.002 94.0788 46.118V46.676C94.0788 47.02 93.9068 47.192 93.5628 47.192H93.3708Z" fill="#AAFF00"/>
<path d="M57.9768 58.084C57.6808 58.084 57.4208 58.022 57.1968 57.898C56.9728 57.77 56.7988 57.592 56.6748 57.364C56.5508 57.136 56.4888 56.872 56.4888 56.572V56.5C56.4888 56.196 56.5508 55.93 56.6748 55.702C56.7988 55.474 56.9708 55.298 57.1908 55.174C57.4108 55.046 57.6628 54.982 57.9468 54.982C58.2228 54.982 58.4668 55.042 58.6788 55.162C58.8908 55.278 59.0568 55.446 59.1768 55.666C59.2968 55.886 59.3568 56.144 59.3568 56.44V56.656H56.9628C56.9748 56.972 57.0768 57.22 57.2688 57.4C57.4608 57.576 57.7008 57.664 57.9888 57.664C58.2408 57.664 58.4348 57.606 58.5708 57.49C58.7068 57.374 58.8108 57.236 58.8828 57.076L59.2908 57.274C59.2308 57.398 59.1468 57.522 59.0388 57.646C58.9348 57.77 58.7968 57.874 58.6248 57.958C58.4568 58.042 58.2408 58.084 57.9768 58.084ZM56.9688 56.266H58.8768C58.8608 55.994 58.7668 55.782 58.5948 55.63C58.4268 55.478 58.2108 55.402 57.9468 55.402C57.6788 55.402 57.4588 55.478 57.2868 55.63C57.1148 55.782 57.0088 55.994 56.9688 56.266ZM59.7443 58L60.9203 56.512L59.7803 55.066H60.3503L61.2263 56.2H61.3103L62.1803 55.066H62.7563L61.6103 56.512L62.7863 58H62.2103L61.3103 56.83H61.2263L60.3263 58H59.7443ZM64.3707 58.084C64.1667 58.084 63.9807 58.048 63.8127 57.976C63.6447 57.904 63.5127 57.8 63.4167 57.664C63.3207 57.528 63.2727 57.362 63.2727 57.166C63.2727 56.966 63.3207 56.802 63.4167 56.674C63.5127 56.542 63.6447 56.444 63.8127 56.38C63.9807 56.312 64.1687 56.278 64.3767 56.278H65.3667V56.062C65.3667 55.854 65.3047 55.69 65.1807 55.57C65.0607 55.45 64.8807 55.39 64.6407 55.39C64.4047 55.39 64.2207 55.448 64.0887 55.564C63.9567 55.676 63.8667 55.828 63.8187 56.02L63.3747 55.876C63.4227 55.712 63.4987 55.564 63.6027 55.432C63.7067 55.296 63.8447 55.188 64.0167 55.108C64.1927 55.024 64.4027 54.982 64.6467 54.982C65.0227 54.982 65.3147 55.08 65.5227 55.276C65.7307 55.468 65.8347 55.74 65.8347 56.092V57.418C65.8347 57.538 65.8907 57.598 66.0027 57.598H66.2727V58H65.8587C65.7267 58 65.6207 57.964 65.5407 57.892C65.4607 57.816 65.4207 57.716 65.4207 57.592V57.562H65.3487C65.3047 57.638 65.2447 57.718 65.1687 57.802C65.0967 57.882 64.9967 57.948 64.8687 58C64.7407 58.056 64.5747 58.084 64.3707 58.084ZM64.4247 57.676C64.7047 57.676 64.9307 57.594 65.1027 57.43C65.2787 57.262 65.3667 57.028 65.3667 56.728V56.662H64.3947C64.2067 56.662 64.0507 56.704 63.9267 56.788C63.8067 56.868 63.7467 56.99 63.7467 57.154C63.7467 57.318 63.8087 57.446 63.9327 57.538C64.0607 57.63 64.2247 57.676 64.4247 57.676ZM66.9218 58V55.066H67.3838V55.432H67.4678C67.5238 55.328 67.6158 55.232 67.7438 55.144C67.8718 55.056 68.0518 55.012 68.2838 55.012C68.5118 55.012 68.6958 55.062 68.8358 55.162C68.9798 55.262 69.0838 55.384 69.1478 55.528H69.2318C69.2998 55.384 69.4018 55.262 69.5378 55.162C69.6778 55.062 69.8718 55.012 70.1198 55.012C70.3158 55.012 70.4878 55.052 70.6358 55.132C70.7838 55.212 70.8998 55.328 70.9838 55.48C71.0718 55.628 71.1158 55.806 71.1158 56.014V58H70.6418V56.056C70.6418 55.86 70.5838 55.706 70.4678 55.594C70.3558 55.478 70.1978 55.42 69.9938 55.42C69.7778 55.42 69.5998 55.49 69.4598 55.63C69.3238 55.77 69.2558 55.972 69.2558 56.236V58H68.7818V56.056C68.7818 55.86 68.7238 55.706 68.6078 55.594C68.4958 55.478 68.3378 55.42 68.1338 55.42C67.9178 55.42 67.7398 55.49 67.5998 55.63C67.4638 55.77 67.3958 55.972 67.3958 56.236V58H66.9218ZM72.0839 59.2V55.066H72.5459V55.552H72.6299C72.7059 55.404 72.8279 55.272 72.9959 55.156C73.1679 55.04 73.4059 54.982 73.7099 54.982C73.9619 54.982 74.1919 55.044 74.3999 55.168C74.6119 55.288 74.7799 55.46 74.9039 55.684C75.0319 55.908 75.0959 56.178 75.0959 56.494V56.572C75.0959 56.884 75.0339 57.154 74.9099 57.382C74.7859 57.61 74.6179 57.784 74.4059 57.904C74.1979 58.024 73.9659 58.084 73.7099 58.084C73.5059 58.084 73.3319 58.056 73.1879 58C73.0479 57.948 72.9339 57.88 72.8459 57.796C72.7579 57.712 72.6899 57.626 72.6419 57.538H72.5579V59.2H72.0839ZM73.5839 57.664C73.8879 57.664 74.1339 57.568 74.3219 57.376C74.5139 57.18 74.6099 56.908 74.6099 56.56V56.506C74.6099 56.158 74.5139 55.888 74.3219 55.696C74.1339 55.5 73.8879 55.402 73.5839 55.402C73.2839 55.402 73.0359 55.5 72.8399 55.696C72.6479 55.888 72.5519 56.158 72.5519 56.506V56.56C72.5519 56.908 72.6479 57.18 72.8399 57.376C73.0359 57.568 73.2839 57.664 73.5839 57.664ZM75.9453 58V53.8H76.4193V58H75.9453ZM78.76 58.084C78.464 58.084 78.204 58.022 77.98 57.898C77.756 57.77 77.582 57.592 77.458 57.364C77.334 57.136 77.272 56.872 77.272 56.572V56.5C77.272 56.196 77.334 55.93 77.458 55.702C77.582 55.474 77.754 55.298 77.974 55.174C78.194 55.046 78.446 54.982 78.73 54.982C79.006 54.982 79.25 55.042 79.462 55.162C79.674 55.278 79.84 55.446 79.96 55.666C80.08 55.886 80.14 56.144 80.14 56.44V56.656H77.746C77.758 56.972 77.86 57.22 78.052 57.4C78.244 57.576 78.484 57.664 78.772 57.664C79.024 57.664 79.218 57.606 79.354 57.49C79.49 57.374 79.594 57.236 79.666 57.076L80.074 57.274C80.014 57.398 79.93 57.522 79.822 57.646C79.718 57.77 79.58 57.874 79.408 57.958C79.24 58.042 79.024 58.084 78.76 58.084ZM77.752 56.266H79.66C79.644 55.994 79.55 55.782 79.378 55.63C79.21 55.478 78.994 55.402 78.73 55.402C78.462 55.402 78.242 55.478 78.07 55.63C77.898 55.782 77.792 55.994 77.752 56.266ZM82.6828 59.41C82.2988 59.41 81.9668 59.342 81.6868 59.206C81.4108 59.07 81.1988 58.856 81.0508 58.564C80.9028 58.276 80.8288 57.902 80.8288 57.442V55.498C80.8288 55.034 80.9028 54.658 81.0508 54.37C81.1988 54.082 81.4108 53.87 81.6868 53.734C81.9668 53.598 82.2988 53.53 82.6828 53.53V53.944C82.2068 53.948 81.8548 54.08 81.6268 54.34C81.3988 54.596 81.2848 54.992 81.2848 55.528V57.412C81.2848 57.944 81.3988 58.34 81.6268 58.6C81.8548 58.86 82.2068 58.992 82.6828 58.996V59.41ZM84.3026 58C84.1346 58 84.0046 57.954 83.9126 57.862C83.8246 57.77 83.7806 57.644 83.7806 57.484V55.48H82.8986V55.066H83.7806V54.022H84.2546V55.066H85.2146V55.48H84.2546V57.412C84.2546 57.532 84.3126 57.592 84.4286 57.592H85.0826V58H84.3026ZM85.9824 58V53.8H86.4564V55.534H86.5404C86.5804 55.446 86.6404 55.364 86.7204 55.288C86.8044 55.208 86.9104 55.142 87.0384 55.09C87.1704 55.038 87.3364 55.012 87.5364 55.012C87.7564 55.012 87.9524 55.06 88.1244 55.156C88.3004 55.248 88.4404 55.384 88.5444 55.564C88.6484 55.74 88.7004 55.96 88.7004 56.224V58H88.2264V56.26C88.2264 55.968 88.1524 55.756 88.0044 55.624C87.8604 55.492 87.6644 55.426 87.4164 55.426C87.1324 55.426 86.9004 55.518 86.7204 55.702C86.5444 55.886 86.4564 56.16 86.4564 56.524V58H85.9824ZM89.6621 58V55.066H90.1361V58H89.6621ZM89.9021 54.61C89.7981 54.61 89.7101 54.576 89.6381 54.508C89.5701 54.44 89.5361 54.354 89.5361 54.25C89.5361 54.142 89.5701 54.054 89.6381 53.986C89.7101 53.918 89.7981 53.884 89.9021 53.884C90.0061 53.884 90.0921 53.918 90.1601 53.986C90.2281 54.054 90.2621 54.142 90.2621 54.25C90.2621 54.354 90.2281 54.44 90.1601 54.508C90.0921 54.576 90.0061 54.61 89.9021 54.61ZM91.1328 58V55.066H91.5948V55.564H91.6788C91.7428 55.424 91.8508 55.298 92.0028 55.186C92.1588 55.07 92.3868 55.012 92.6868 55.012C92.9068 55.012 93.1028 55.058 93.2748 55.15C93.4508 55.242 93.5908 55.378 93.6948 55.558C93.7988 55.738 93.8508 55.96 93.8508 56.224V58H93.3768V56.26C93.3768 55.968 93.3028 55.756 93.1548 55.624C93.0108 55.492 92.8148 55.426 92.5668 55.426C92.2828 55.426 92.0508 55.518 91.8708 55.702C91.6948 55.886 91.6068 56.16 91.6068 56.524V58H91.1328ZM94.6685 56.548V56.464C94.6685 56.156 94.7305 55.892 94.8545 55.672C94.9785 55.452 95.1465 55.282 95.3585 55.162C95.5705 55.042 95.8025 54.982 96.0545 54.982C96.3625 54.982 96.5985 55.042 96.7625 55.162C96.9305 55.278 97.0545 55.408 97.1345 55.552H97.2185V55.066H97.6685V58.684C97.6685 58.844 97.6245 58.97 97.5365 59.062C97.4485 59.154 97.3205 59.2 97.1525 59.2H95.1605V58.78H97.0265C97.1465 58.78 97.2065 58.72 97.2065 58.6V57.484H97.1225C97.0745 57.572 97.0065 57.658 96.9185 57.742C96.8305 57.826 96.7165 57.896 96.5765 57.952C96.4365 58.004 96.2625 58.03 96.0545 58.03C95.8025 58.03 95.5705 57.97 95.3585 57.85C95.1465 57.73 94.9785 57.56 94.8545 57.34C94.7305 57.116 94.6685 56.852 94.6685 56.548ZM96.1805 57.61C96.4845 57.61 96.7305 57.514 96.9185 57.322C97.1105 57.13 97.2065 56.866 97.2065 56.53V56.482C97.2065 56.142 97.1105 55.878 96.9185 55.69C96.7305 55.498 96.4845 55.402 96.1805 55.402C95.8805 55.402 95.6325 55.498 95.4365 55.69C95.2445 55.878 95.1485 56.142 95.1485 56.482V56.53C95.1485 56.866 95.2445 57.13 95.4365 57.322C95.6325 57.514 95.8805 57.61 96.1805 57.61ZM98.9201 58.084C98.8041 58.084 98.7061 58.046 98.6261 57.97C98.5501 57.894 98.5121 57.796 98.5121 57.676C98.5121 57.556 98.5501 57.458 98.6261 57.382C98.7061 57.306 98.8041 57.268 98.9201 57.268C99.0401 57.268 99.1381 57.306 99.2141 57.382C99.2901 57.458 99.3281 57.556 99.3281 57.676C99.3281 57.796 99.2901 57.894 99.2141 57.97C99.1381 58.046 99.0401 58.084 98.9201 58.084ZM98.9201 55.798C98.8041 55.798 98.7061 55.76 98.6261 55.684C98.5501 55.608 98.5121 55.51 98.5121 55.39C98.5121 55.27 98.5501 55.172 98.6261 55.096C98.7061 55.02 98.8041 54.982 98.9201 54.982C99.0401 54.982 99.1381 55.02 99.2141 55.096C99.2901 55.172 99.3281 55.27 99.3281 55.39C99.3281 55.51 99.2901 55.608 99.2141 55.684C99.1381 55.76 99.0401 55.798 98.9201 55.798ZM58.7432 67.41V66.996C59.2272 66.992 59.5812 66.86 59.8052 66.6C60.0292 66.34 60.1412 65.944 60.1412 65.412V63.528C60.1412 62.992 60.0292 62.596 59.8052 62.34C59.5812 62.08 59.2272 61.948 58.7432 61.944V61.53C59.1312 61.53 59.4632 61.598 59.7392 61.734C60.0152 61.87 60.2272 62.082 60.3752 62.37C60.5272 62.658 60.6032 63.034 60.6032 63.498V65.442C60.6032 65.902 60.5272 66.276 60.3752 66.564C60.2272 66.856 60.0152 67.07 59.7392 67.206C59.4632 67.342 59.1312 67.41 58.7432 67.41Z" fill="#FF2E00"/>
<rect x="69.9435" y="69.4228" width="71.887" height="49.5773" rx="8" fill="#1A1A1A" stroke="#8B8B8B" stroke-width="4"/>
<path d="M86.3729 90.2665C85.4209 90.2665 84.6609 89.9865 84.0929 89.4265C83.5329 88.8585 83.2529 88.0105 83.2529 86.8825V84.9145C83.2529 83.7945 83.5329 82.9505 84.0929 82.3825C84.6609 81.8145 85.4209 81.5305 86.3729 81.5305C87.3329 81.5305 88.0929 81.8145 88.6529 82.3825C89.2209 82.9505 89.5049 83.7945 89.5049 84.9145V86.8825C89.5049 88.0105 89.2209 88.8585 88.6529 89.4265C88.0929 89.9865 87.3329 90.2665 86.3729 90.2665ZM86.3729 89.3905C87.0929 89.3905 87.6329 89.1745 87.9929 88.7425C88.3529 88.3105 88.5329 87.7065 88.5329 86.9305V84.8545C88.5329 84.0785 88.3489 83.4785 87.9809 83.0545C87.6129 82.6225 87.0769 82.4065 86.3729 82.4065C85.6689 82.4065 85.1329 82.6225 84.7649 83.0545C84.4049 83.4865 84.2249 84.0865 84.2249 84.8545V86.9305C84.2249 87.7145 84.4049 88.3225 84.7649 88.7545C85.1249 89.1785 85.6609 89.3905 86.3729 89.3905ZM93.3044 90.0985V82.3465H93.1244L91.4924 85.3345H90.4364L92.4404 81.6985H94.2764V90.0985H93.3044ZM98.32 90.0985V82.3465H98.14L96.508 85.3345H95.452L97.456 81.6985H99.292V90.0985H98.32ZM104.092 90.2665C103.14 90.2665 102.38 89.9865 101.812 89.4265C101.252 88.8585 100.972 88.0105 100.972 86.8825V84.9145C100.972 83.7945 101.252 82.9505 101.812 82.3825C102.38 81.8145 103.14 81.5305 104.092 81.5305C105.052 81.5305 105.812 81.8145 106.372 82.3825C106.94 82.9505 107.224 83.7945 107.224 84.9145V86.8825C107.224 88.0105 106.94 88.8585 106.372 89.4265C105.812 89.9865 105.052 90.2665 104.092 90.2665ZM104.092 89.3905C104.812 89.3905 105.352 89.1745 105.712 88.7425C106.072 88.3105 106.252 87.7065 106.252 86.9305V84.8545C106.252 84.0785 106.068 83.4785 105.7 83.0545C105.332 82.6225 104.796 82.4065 104.092 82.4065C103.388 82.4065 102.852 82.6225 102.484 83.0545C102.124 83.4865 101.944 84.0865 101.944 84.8545V86.9305C101.944 87.7145 102.124 88.3225 102.484 88.7545C102.844 89.1785 103.38 89.3905 104.092 89.3905ZM111.023 90.0985V82.3465H110.843L109.211 85.3345H108.155L110.159 81.6985H111.995V90.0985H111.023ZM116.039 90.0985V82.3465H115.859L114.227 85.3345H113.171L115.175 81.6985H117.011V90.0985H116.039ZM121.054 90.0985V82.3465H120.874L119.242 85.3345H118.186L120.19 81.6985H122.026V90.0985H121.054ZM126.07 90.0985V82.3465H125.89L124.258 85.3345H123.202L125.206 81.6985H127.042V90.0985H126.07ZM85.0369 105.267C84.0849 105.267 83.3249 104.987 82.7569 104.427C82.1969 103.859 81.9169 103.011 81.9169 101.883V99.9145C81.9169 98.7945 82.1969 97.9505 82.7569 97.3825C83.3249 96.8145 84.0849 96.5305 85.0369 96.5305C85.9969 96.5305 86.7569 96.8145 87.3169 97.3825C87.8849 97.9505 88.1689 98.7945 88.1689 99.9145V101.883C88.1689 103.011 87.8849 103.859 87.3169 104.427C86.7569 104.987 85.9969 105.267 85.0369 105.267ZM85.0369 104.391C85.7569 104.391 86.2969 104.175 86.6569 103.743C87.0169 103.311 87.1969 102.707 87.1969 101.931V99.8545C87.1969 99.0785 87.0129 98.4785 86.6449 98.0545C86.2769 97.6225 85.7409 97.4065 85.0369 97.4065C84.3329 97.4065 83.7969 97.6225 83.4289 98.0545C83.0689 98.4865 82.8889 99.0865 82.8889 99.8545V101.931C82.8889 102.715 83.0689 103.323 83.4289 103.755C83.7889 104.179 84.3249 104.391 85.0369 104.391ZM91.9684 105.099V97.3465H91.7884L90.1564 100.335H89.1004L91.1044 96.6985H92.9404V105.099H91.9684ZM96.984 105.099V97.3465H96.804L95.172 100.335H94.116L96.12 96.6985H97.956V105.099H96.984ZM102.756 105.267C101.804 105.267 101.044 104.987 100.476 104.427C99.9157 103.859 99.6357 103.011 99.6357 101.883V99.9145C99.6357 98.7945 99.9157 97.9505 100.476 97.3825C101.044 96.8145 101.804 96.5305 102.756 96.5305C103.716 96.5305 104.476 96.8145 105.036 97.3825C105.604 97.9505 105.888 98.7945 105.888 99.9145V101.883C105.888 103.011 105.604 103.859 105.036 104.427C104.476 104.987 103.716 105.267 102.756 105.267ZM102.756 104.391C103.476 104.391 104.016 104.175 104.376 103.743C104.736 103.311 104.916 102.707 104.916 101.931V99.8545C104.916 99.0785 104.732 98.4785 104.364 98.0545C103.996 97.6225 103.46 97.4065 102.756 97.4065C102.052 97.4065 101.516 97.6225 101.148 98.0545C100.788 98.4865 100.608 99.0865 100.608 99.8545V101.931C100.608 102.715 100.788 103.323 101.148 103.755C101.508 104.179 102.044 104.391 102.756 104.391ZM109.687 105.099V97.3465H109.507L107.875 100.335H106.819L108.823 96.6985H110.659V105.099H109.687ZM115.459 105.267C114.507 105.267 113.747 104.987 113.179 104.427C112.619 103.859 112.339 103.011 112.339 101.883V99.9145C112.339 98.7945 112.619 97.9505 113.179 97.3825C113.747 96.8145 114.507 96.5305 115.459 96.5305C116.419 96.5305 117.179 96.8145 117.739 97.3825C118.307 97.9505 118.591 98.7945 118.591 99.9145V101.883C118.591 103.011 118.307 103.859 117.739 104.427C117.179 104.987 116.419 105.267 115.459 105.267ZM115.459 104.391C116.179 104.391 116.719 104.175 117.079 103.743C117.439 103.311 117.619 102.707 117.619 101.931V99.8545C117.619 99.0785 117.435 98.4785 117.067 98.0545C116.699 97.6225 116.163 97.4065 115.459 97.4065C114.755 97.4065 114.219 97.6225 113.851 98.0545C113.491 98.4865 113.311 99.0865 113.311 99.8545V101.931C113.311 102.715 113.491 103.323 113.851 103.755C114.211 104.179 114.747 104.391 115.459 104.391ZM122.39 105.099V97.3465H122.21L120.578 100.335H119.522L121.526 96.6985H123.362V105.099H122.39ZM127.406 105.099V97.3465H127.226L125.594 100.335H124.538L126.542 96.6985H128.378V105.099H127.406Z" fill="url(#paint1_linear_2_134)"/>
<defs>
<linearGradient id="paint0_linear_2_134" x1="210" y1="78.5" x2="427.013" y2="76.2725" gradientUnits="userSpaceOnUse">
<stop stop-color="#FF0000"/>
<stop offset="1" stop-color="#FFB800"/>
</linearGradient>
<linearGradient id="paint1_linear_2_134" x1="105.267" y1="78.0985" x2="105.267" y2="111.563" gradientUnits="userSpaceOnUse">
<stop stop-color="#42FF00"/>
<stop offset="1" stop-color="#00FF66"/>
</linearGradient>
</defs>
</svg>
