<svg width="450" height="150" viewBox="0 0 450 150" fill="none" xmlns="http://www.w3.org/2000/svg">
<rect width="450" height="150" rx="5" fill="white"/>
<rect x="36" y="89.8823" width="71" height="22.9412" rx="8" fill="url(#paint0_linear_2_109)"/>
<rect x="64" y="60.9412" width="71" height="22.9412" rx="8" fill="url(#paint1_linear_2_109)"/>
<rect x="89" y="32" width="71" height="22.9412" rx="8" fill="url(#paint2_linear_2_109)"/>
<g filter="url(#filter0_d_2_109)">
<path d="M213.168 92V58.4H226.992C229.104 58.4 230.96 58.832 232.56 59.696C234.192 60.528 235.456 61.712 236.352 63.248C237.28 64.784 237.744 66.608 237.744 68.72V69.392C237.744 71.472 237.264 73.296 236.304 74.864C235.376 76.4 234.096 77.6 232.464 78.464C230.864 79.296 229.04 79.712 226.992 79.712H219.504V92H213.168ZM219.504 73.952H226.368C227.872 73.952 229.088 73.536 230.016 72.704C230.944 71.872 231.408 70.736 231.408 69.296V68.816C231.408 67.376 230.944 66.24 230.016 65.408C229.088 64.576 227.872 64.16 226.368 64.16H219.504V73.952ZM242.329 92V58.4H248.377V71.12H249.241C249.497 70.608 249.897 70.096 250.441 69.584C250.985 69.072 251.705 68.656 252.601 68.336C253.529 67.984 254.697 67.808 256.105 67.808C257.961 67.808 259.577 68.24 260.953 69.104C262.361 69.936 263.449 71.104 264.217 72.608C264.985 74.08 265.369 75.808 265.369 77.792V92H259.321V78.272C259.321 76.48 258.873 75.136 257.977 74.24C257.113 73.344 255.865 72.896 254.233 72.896C252.377 72.896 250.937 73.52 249.913 74.768C248.889 75.984 248.377 77.696 248.377 79.904V92H242.329ZM279.299 92.672C277.603 92.672 276.083 92.384 274.739 91.808C273.395 91.2 272.323 90.336 271.523 89.216C270.755 88.064 270.371 86.672 270.371 85.04C270.371 83.408 270.755 82.048 271.523 80.96C272.323 79.84 273.411 79.008 274.787 78.464C276.195 77.888 277.795 77.6 279.587 77.6H286.115V76.256C286.115 75.136 285.763 74.224 285.059 73.52C284.355 72.784 283.235 72.416 281.699 72.416C280.195 72.416 279.075 72.768 278.339 73.472C277.603 74.144 277.123 75.024 276.899 76.112L271.331 74.24C271.715 73.024 272.323 71.92 273.155 70.928C274.019 69.904 275.155 69.088 276.563 68.48C278.003 67.84 279.747 67.52 281.795 67.52C284.931 67.52 287.411 68.304 289.235 69.872C291.059 71.44 291.971 73.712 291.971 76.688V85.568C291.971 86.528 292.419 87.008 293.315 87.008H295.235V92H291.203C290.019 92 289.043 91.712 288.275 91.136C287.507 90.56 287.123 89.792 287.123 88.832V88.784H286.211C286.083 89.168 285.795 89.68 285.347 90.32C284.899 90.928 284.195 91.472 283.235 91.952C282.275 92.432 280.963 92.672 279.299 92.672ZM280.355 87.776C282.051 87.776 283.427 87.312 284.483 86.384C285.571 85.424 286.115 84.16 286.115 82.592V82.112H280.019C278.899 82.112 278.019 82.352 277.379 82.832C276.739 83.312 276.419 83.984 276.419 84.848C276.419 85.712 276.755 86.416 277.427 86.96C278.099 87.504 279.075 87.776 280.355 87.776ZM309.357 92.672C306.253 92.672 303.709 92 301.725 90.656C299.741 89.312 298.541 87.392 298.125 84.896L303.693 83.456C303.917 84.576 304.285 85.456 304.797 86.096C305.341 86.736 305.997 87.2 306.765 87.488C307.565 87.744 308.429 87.872 309.357 87.872C310.765 87.872 311.805 87.632 312.477 87.152C313.149 86.64 313.485 86.016 313.485 85.28C313.485 84.544 313.165 83.984 312.525 83.6C311.885 83.184 310.861 82.848 309.453 82.592L308.109 82.352C306.445 82.032 304.925 81.6 303.549 81.056C302.173 80.48 301.069 79.696 300.237 78.704C299.405 77.712 298.989 76.432 298.989 74.864C298.989 72.496 299.853 70.688 301.581 69.44C303.309 68.16 305.581 67.52 308.397 67.52C311.053 67.52 313.261 68.112 315.021 69.296C316.781 70.48 317.933 72.032 318.477 73.952L312.861 75.68C312.605 74.464 312.077 73.6 311.277 73.088C310.509 72.576 309.549 72.32 308.397 72.32C307.245 72.32 306.365 72.528 305.757 72.944C305.149 73.328 304.845 73.872 304.845 74.576C304.845 75.344 305.165 75.92 305.805 76.304C306.445 76.656 307.309 76.928 308.397 77.12L309.741 77.36C311.533 77.68 313.149 78.112 314.589 78.656C316.061 79.168 317.213 79.92 318.045 80.912C318.909 81.872 319.341 83.184 319.341 84.848C319.341 87.344 318.429 89.28 316.605 90.656C314.813 92 312.397 92.672 309.357 92.672ZM335.489 92.672C333.121 92.672 331.025 92.176 329.201 91.184C327.409 90.16 326.001 88.736 324.977 86.912C323.985 85.056 323.489 82.88 323.489 80.384V79.808C323.489 77.312 323.985 75.152 324.977 73.328C325.969 71.472 327.361 70.048 329.153 69.056C330.945 68.032 333.025 67.52 335.393 67.52C337.729 67.52 339.761 68.048 341.489 69.104C343.217 70.128 344.561 71.568 345.521 73.424C346.481 75.248 346.961 77.376 346.961 79.808V81.872H329.633C329.697 83.504 330.305 84.832 331.457 85.856C332.609 86.88 334.017 87.392 335.681 87.392C337.377 87.392 338.625 87.024 339.425 86.288C340.225 85.552 340.833 84.736 341.249 83.84L346.193 86.432C345.745 87.264 345.089 88.176 344.225 89.168C343.393 90.128 342.273 90.96 340.865 91.664C339.457 92.336 337.665 92.672 335.489 92.672ZM329.681 77.36H340.817C340.689 75.984 340.129 74.88 339.137 74.048C338.177 73.216 336.913 72.8 335.345 72.8C333.713 72.8 332.417 73.216 331.457 74.048C330.497 74.88 329.905 75.984 329.681 77.36ZM362.232 92.672C359.128 92.672 356.584 92 354.6 90.656C352.616 89.312 351.416 87.392 351 84.896L356.568 83.456C356.792 84.576 357.16 85.456 357.672 86.096C358.216 86.736 358.872 87.2 359.64 87.488C360.44 87.744 361.304 87.872 362.232 87.872C363.64 87.872 364.68 87.632 365.352 87.152C366.024 86.64 366.36 86.016 366.36 85.28C366.36 84.544 366.04 83.984 365.4 83.6C364.76 83.184 363.736 82.848 362.328 82.592L360.984 82.352C359.32 82.032 357.8 81.6 356.424 81.056C355.048 80.48 353.944 79.696 353.112 78.704C352.28 77.712 351.864 76.432 351.864 74.864C351.864 72.496 352.728 70.688 354.456 69.44C356.184 68.16 358.456 67.52 361.272 67.52C363.928 67.52 366.136 68.112 367.896 69.296C369.656 70.48 370.808 72.032 371.352 73.952L365.736 75.68C365.48 74.464 364.952 73.6 364.152 73.088C363.384 72.576 362.424 72.32 361.272 72.32C360.12 72.32 359.24 72.528 358.632 72.944C358.024 73.328 357.72 73.872 357.72 74.576C357.72 75.344 358.04 75.92 358.68 76.304C359.32 76.656 360.184 76.928 361.272 77.12L362.616 77.36C364.408 77.68 366.024 78.112 367.464 78.656C368.936 79.168 370.088 79.92 370.92 80.912C371.784 81.872 372.216 83.184 372.216 84.848C372.216 87.344 371.304 89.28 369.48 90.656C367.688 92 365.272 92.672 362.232 92.672Z" fill="url(#paint3_linear_2_109)"/>
</g>
<defs>
<filter id="filter0_d_2_109" x="173.168" y="22.4" width="239.048" height="114.272" filterUnits="userSpaceOnUse" color-interpolation-filters="sRGB">
<feFlood flood-opacity="0" result="BackgroundImageFix"/>
<feColorMatrix in="SourceAlpha" type="matrix" values="0 0 0 0 0 0 0 0 0 0 0 0 0 0 0 0 0 0 127 0" result="hardAlpha"/>
<feOffset dy="4"/>
<feGaussianBlur stdDeviation="20"/>
<feComposite in2="hardAlpha" operator="out"/>
<feColorMatrix type="matrix" values="0 0 0 0 0.121569 0 0 0 0 0.803922 0 0 0 0 0.54902 0 0 0 0.5 0"/>
<feBlend mode="normal" in2="BackgroundImageFix" result="effect1_dropShadow_2_109"/>
<feBlend mode="normal" in="SourceGraphic" in2="effect1_dropShadow_2_109" result="shape"/>
</filter>
<linearGradient id="paint0_linear_2_109" x1="71.5" y1="89.8823" x2="71.5" y2="112.824" gradientUnits="userSpaceOnUse">
<stop stop-color="#FF00D6"/>
<stop offset="1" stop-color="#0500FF"/>
</linearGradient>
<linearGradient id="paint1_linear_2_109" x1="99.5" y1="60.9412" x2="99.5" y2="83.8823" gradientUnits="userSpaceOnUse">
<stop stop-color="#00FF29"/>
<stop offset="1" stop-color="#00A3FF"/>
</linearGradient>
<linearGradient id="paint2_linear_2_109" x1="113.621" y1="21.4471" x2="135.029" y2="58.115" gradientUnits="userSpaceOnUse">
<stop stop-color="#FF0000"/>
<stop offset="1" stop-color="#FFB800"/>
</linearGradient>
<linearGradient id="paint3_linear_2_109" x1="210" y1="78.5" x2="427.013" y2="76.2725" gradientUnits="userSpaceOnUse">
<stop stop-color="#42FF00"/>
<stop offset="1" stop-color="#00A3FF"/>
</linearGradient>
</defs>
</svg>
